<?xml version="1.0" encoding="UTF-8" standalone="no"?>
<!-- Created with Inkscape (http://www.inkscape.org/) -->

<svg
   xmlns:osb="http://www.openswatchbook.org/uri/2009/osb"
   xmlns:dc="http://purl.org/dc/elements/1.1/"
   xmlns:cc="http://creativecommons.org/ns#"
   xmlns:rdf="http://www.w3.org/1999/02/22-rdf-syntax-ns#"
   xmlns:svg="http://www.w3.org/2000/svg"
   xmlns="http://www.w3.org/2000/svg"
   xmlns:xlink="http://www.w3.org/1999/xlink"
   xmlns:sodipodi="http://sodipodi.sourceforge.net/DTD/sodipodi-0.dtd"
   xmlns:inkscape="http://www.inkscape.org/namespaces/inkscape"
   id="svg11619"
   version="1.1"
   inkscape:version="0.48.4 r9939"
   width="1000"
   height="1000"
   sodipodi:docname="TCHW-Logo.svg"
   inkscape:export-filename="C:\Dokumente und Einstellungen\Schniering\Eigene Dateien\TCHW\Logo\TCHW-Logo.png"
   inkscape:export-xdpi="90"
   inkscape:export-ydpi="90">
  <metadata
     id="metadata11625">
    <rdf:RDF>
      <cc:Work
         rdf:about="">
        <dc:format>image/svg+xml</dc:format>
        <dc:type
           rdf:resource="http://purl.org/dc/dcmitype/StillImage" />
        <dc:title></dc:title>
        <dc:creator>
          <cc:Agent>
            <dc:title>TCHW</dc:title>
          </cc:Agent>
        </dc:creator>
        <dc:rights>
          <cc:Agent>
            <dc:title>TCHW</dc:title>
          </cc:Agent>
        </dc:rights>
        <dc:contributor>
          <cc:Agent>
            <dc:title>Max Franke
Antonius Schniering</dc:title>
          </cc:Agent>
        </dc:contributor>
      </cc:Work>
    </rdf:RDF>
  </metadata>
  <defs
     id="defs11623">
    <linearGradient
       id="linearGradient14429">
      <stop
         id="stop14439"
         offset="0"
         style="stop-color:#ffffff;stop-opacity:1;" />
      <stop
         style="stop-color:#d1d1d1;stop-opacity:1;"
         offset="0.55659622"
         id="stop15523" />
      <stop
         style="stop-color:#000000;stop-opacity:1"
         offset="1"
         id="stop14433" />
    </linearGradient>
    <linearGradient
       id="linearGradient14409"
       osb:paint="gradient">
      <stop
         style="stop-color:#000000;stop-opacity:1;"
         offset="0"
         id="stop14411" />
      <stop
         style="stop-color:#000000;stop-opacity:0;"
         offset="1"
         id="stop14413" />
    </linearGradient>
    <radialGradient
       inkscape:collect="always"
       xlink:href="#linearGradient14429"
       id="radialGradient15557"
       gradientUnits="userSpaceOnUse"
       gradientTransform="matrix(1.2683161,1.065724,-0.88480457,1.0218975,651.99835,819.19428)"
       cx="-845.02679"
       cy="509.26926"
       fx="-845.02679"
       fy="509.26926"
       r="375.13501" />
    <radialGradient
       inkscape:collect="always"
       xlink:href="#linearGradient14429"
       id="radialGradient15571"
       gradientUnits="userSpaceOnUse"
       gradientTransform="matrix(1.2683161,1.065724,-0.88480457,1.0218975,651.99835,819.19428)"
       cx="-845.02679"
       cy="509.26926"
       fx="-845.02679"
       fy="509.26926"
       r="375.13501" />
  </defs>
  <sodipodi:namedview
     pagecolor="#ffffff"
     bordercolor="#666666"
     borderopacity="1"
     objecttolerance="10"
     gridtolerance="10"
     guidetolerance="10"
     inkscape:pageopacity="0"
     inkscape:pageshadow="2"
     inkscape:window-width="1680"
     inkscape:window-height="990"
     id="namedview11621"
     showgrid="false"
     inkscape:zoom="0.64125932"
     inkscape:cx="525.52842"
     inkscape:cy="533.81756"
     inkscape:window-x="-4"
     inkscape:window-y="-4"
     inkscape:window-maximized="1"
     inkscape:current-layer="svg11619"
     fit-margin-top="0"
     fit-margin-left="0"
     fit-margin-right="0"
     fit-margin-bottom="0"
     units="mm" />
  <g
     id="g17093">
    <g
       transform="matrix(0.87575302,0,0,0.85447231,-33.360738,-16.952142)"
       id="g15564">
      <path
         style="fill:#ffd100;fill-opacity:1;fill-rule:evenodd;stroke:none"
         d="m 609.42755,21.57953 c -310.69147,0 -562.562467,260.02283 -562.562467,580.74999 0,320.7271 251.870997,580.71858 562.562467,580.71858 310.6914,0 562.56255,-259.99148 562.56255,-580.71858 0,-320.72716 -251.87115,-580.74999 -562.56255,-580.74999 z m 0.75,189.5 c 209.7167,0 379.7187,175.50916 379.7187,391.99999 0,216.4908 -170.002,392 -379.7187,392 -209.71672,0 -379.71877,-175.5092 -379.71877,-392 0,-216.49083 170.00205,-391.99999 379.71877,-391.99999 z"
         id="path12632-3"
         inkscape:connector-curvature="0" />
      <path
         style="fill:#000000;fill-opacity:1"
         d="m 610.94108,19.8492 c -19.05268,0.10709 -38.76345,1.08247 -57.71875,2.9375 -16.0284,1.5686 -16.5368,1.62776 -31.5,3.90625 -14.0667,2.14198 -18.3425,2.99489 -28.5,5.625 -3.025,0.78327 -10.45,2.55916 -16.5,3.96875 -6.05,1.4096 -13.7,3.38891 -17,4.40625 -24.28922,7.487995 -36.6247,11.456335 -40.5,13.031255 -2.475,1.00584 -7.3059,2.62575 -10.75,3.59375 -3.444,0.96799 -6.75635,2.3547 -7.34375,3.0625 -0.5875,0.70779 -2.70025,1.79566 -4.71875,2.4375 -5.1382,1.63384 -29.1892,12.96669 -38.1875,18 -4.125,2.30738 -10.9491,5.92362 -15.1875,8.03125 -9.2533,4.60144 -19.47195,10.73122 -34.40625,20.593745 -6.1086,4.03413 -11.5663,7.3125 -12.125,7.3125 -0.5587,0 -3.7712,2.13751 -7.125,4.75 -6.5406,5.09489 -11.7089,8.91931 -18.6875,13.8125 -25.4487,17.84393 -77.3184,67.14539 -92.25,87.6875 -1.2523,1.72282 -4.6273,5.68173 -7.5,8.8125 -2.8727,3.13077 -7.0187,8.0806 -9.2188,11 -2.2,2.91939 -5.81,7.59093 -8.0312,10.375 -7.3843,9.25549 -13.3004,18.08754 -14,20.875 -0.3802,1.51484 -1.4441,3.29231 -2.3438,3.96875 -2.4746,1.8607 -7.3127,8.45697 -11.6874,15.875 -4.1281,6.99991 -5.8642,9.89234 -11.1876,18.84375 -1.7989,3.025 -3.9718,7.075 -4.8437,9 -0.8719,1.925 -2.4401,4.41559 -3.4687,5.53125 -1.0288,1.11566 -2.543,3.95432 -3.375,6.3125 -0.8322,2.35818 -2.3476,5.49259 -3.374997,6.96875 -1.0274,1.47616 -2.3464,4.0375 -2.9063,5.6875 -1.0373,3.05662 -9.1029,21.05868 -14.375,32.09375 -1.6033,3.35571 -2.9063,6.56313 -2.9063,7.125 0,0.56187 -0.9709,3.22661 -2.1562,5.90625 -7.1715,16.21221 -21.5563,65.57783 -27.2188,93.375 -2.5289,12.41405 -6.4694,36.07211 -7.1562,43 -0.3544,3.575 -1.066,8.40931 -1.5625,10.71875 -1.4636,6.80851 -2.9682,39.92112 -3.0313,66.28125 -0.0545,22.65018 0.4904,31.75757 4.1563,70 1.5695,16.37329 6.7657,45.98216 10,57 2.009,6.84364 3.1303,11.63366 5.0937,21.5 1.2676,6.36909 13.7917,44.90484 18.6876,57.5 2.7733,7.13485 6.3929,15.94485 12.9374,31.5 5.0061,11.89847 22.349597,45.74435 26.906297,52.5 1.2918,1.91518 2.3437,3.83409 2.3437,4.28125 0,0.44717 2.2634,4.17937 5.0313,8.28125 2.7679,4.10188 5.2935,8.22672 5.625,9.1875 0.5839,1.69189 4.6945,8.24971 14.25,22.75 6.0321,9.15342 16.038,22.36851 17.625,23.28125 0.69,0.39686 3.9043,4.60363 7.125,9.34375 12.6835,18.66724 68.7208,76.09705 85.6875,87.81245 3.5506,2.4519 22.829,17.7009 27.5312,21.7813 3.9344,3.414 8.0461,6.1761 23.50005,15.7812 2.6547,1.6501 9.10345,5.7962 14.34375,9.2188 5.2403,3.4228 10.48865,6.5373 11.65625,6.9062 1.1676,0.3691 3.5301,1.7529 5.25,3.0625 3.2154,2.4484 39.97995,21.3125 41.53125,21.3125 0.4763,0 4.11295,1.5384 8.09375,3.4064 12.1524,5.7024 18.9408,8.6149 20.125,8.6249 0.6211,0.01 3.375,1.1159 6.125,2.4687 2.75,1.3527 5.5868,2.4517 6.3125,2.4687 0.7258,0.017 4.5508,1.3586 8.5,2.9688 3.9493,1.6103 9.8875,3.6954 13.1875,4.625 3.3,0.9296 7.575,2.2404 9.5,2.9375 1.925,0.697 9.575,2.8739 17,4.8437 26.1868,6.9473 30.9313,8.0694 47.5,11.125 4.95,0.913 12.00255,2.3031 15.65625,3.0938 3.6537,0.7907 9.7287,1.4558 13.5,1.4688 3.7713,0.014 8.86875,0.5339 11.34375,1.1562 4.8646,1.2232 7.7325,1.4274 36.5,2.6875 22.3829,0.9805 48.57865,0.5357 55.59375,-0.9687 2.7369,-0.5876 5.60745,-0.8452 6.34375,-0.5626 0.7362,0.2826 6.6585,-0.1305 13.1875,-0.9062 6.5291,-0.7758 15.925,-1.8746 20.875,-2.4375 9.8615,-1.1214 17.0683,-2.4131 25.5,-4.5625 3.025,-0.7712 8.2,-1.7996 11.5,-2.3125 9.6674,-1.5026 24.3497,-4.8856 33.5,-7.6875 4.675,-1.4315 10.3,-2.9499 12.5,-3.375 5.1857,-1.002 16.03645,-4.4365 25.59375,-8.125 4.1718,-1.61 8.0777,-2.9375 8.6875,-2.9375 0.6099,0 5.06295,-1.6295 9.90625,-3.625 4.8434,-1.9954 10.6125,-4.2613 12.8125,-5.0313 3.6469,-1.2762 33.5634,-15.5927 39.5,-18.9061 1.375,-0.7675 4.75,-2.4072 7.5,-3.625 9.2841,-4.1114 19.9849,-9.961 22.5,-12.3125 1.375,-1.2856 6.16515,-4.5011 10.65625,-7.1563 7.8392,-4.6347 20.40885,-13.0987 28.84375,-19.4062 2.2,-1.6451 6.5374,-4.7505 9.625,-6.9062 9.4622,-6.6062 32.25525,-25.0144 34.21875,-27.625 1.0196,-1.3558 3.0446,-3.115 4.5,-3.9063 4.8487,-2.6361 40.58452,-38.7201 46.96872,-47.43755 1.4338,-1.9578 3.7545,-4.78271 5.1563,-6.28125 7.7267,-8.25984 25.3747,-30.92183 38.2812,-49.15625 10.6405,-15.03295 16.4541,-24.09148 19.7188,-30.625 1.7864,-3.575 3.8473,-7.175 4.5625,-8 0.7151,-0.825 2.5894,-3.975 4.1875,-7 1.598,-3.025 5.4687,-10.12416 8.5937,-15.78125 3.1251,-5.65709 5.6876,-10.82227 5.6876,-11.5 0,-0.67774 1.1625,-2.95644 2.5937,-5.0625 2.7228,-4.00691 16.4063,-34.21493 16.4063,-36.21875 0,-0.63551 1.7255,-4.91684 3.8437,-9.53125 2.1181,-4.61442 5.9835,-15.15625 8.5938,-23.40625 2.6103,-8.25 5.369,-16.575 6.125,-18.5 0.7561,-1.925 2.2633,-7.1 3.3437,-11.5 1.0805,-4.4 2.934,-11.6 4.125,-16 1.1908,-4.4 2.7228,-10.925 3.4063,-14.5 0.6833,-3.575 1.9817,-9.425 2.875,-13 0.8932,-3.575 2.3189,-11.675 3.1562,-18 0.8372,-6.325 1.9804,-13.975 2.5625,-17 0.5821,-3.025 1.4598,-10.45 1.9375,-16.5 0.4777,-6.05 1.343,-15.95 1.9063,-22 3.6225,-38.90714 1.9058,-88.26326 -4.4688,-128.40625 -0.8222,-5.17709 -1.7293,-11.70209 -2,-14.5 -0.952,-9.83815 -2.432,-18.77331 -3.4062,-20.59375 -0.5414,-1.01171 -1.4351,-5.12461 -2,-9.15625 -0.5649,-4.03165 -1.6956,-9.81875 -2.5,-12.84375 -3.1368,-11.79597 -5.4544,-19.98706 -9.0313,-32 -2.0471,-6.875 -4.0614,-13.85 -4.5,-15.5 -0.4388,-1.65 -1.9892,-6.15 -3.4375,-10 -1.4484,-3.85 -3.6675,-9.925 -4.9375,-13.5 -3.9515,-11.122 -13.1693,-33.1759 -16.9688,-40.625 -1.9964,-3.9141 -3.625,-7.36331 -3.625,-7.6875 0,-0.32419 -1.2676,-2.7383 -2.8125,-5.375 -1.5448,-2.63671 -3.455,-6.3875 -4.25,-8.3125 -2.0888,-5.05734 -13.3603,-25.48018 -17.9375,-32.5 -2.1517,-3.3 -5.2931,-8.25 -7,-11 -8.4105,-13.54998 -11.7497,-18.54116 -14.5,-21.78125 -1.65,-1.94382 -4.0098,-5.03859 -5.25,-6.875 -29.53,-43.72675 -85.04252,-99.47911 -132.09372,-132.68749 -25.9653,-18.32609 -39.16875,-26.83165 -56.15625,-36.125005 -5.225,-2.85845 -10.625,-5.80775 -12,-6.5625 -1.375,-0.75474 -3.85,-1.98493 -5.5,-2.75 -1.65,-0.76507 -6.375,-3.20842 -10.5,-5.40625 -4.125,-2.19782 -9.3,-4.55153 -11.5,-5.25 -2.2,-0.69847 -5.0135,-1.91176 -6.25,-2.6875 -3.4341,-2.15441 -36.9417,-15.77594 -42.75,-17.375 -5.4547,-1.50173 -21.64195,-7.022335 -23.46875,-8.000005 -6.4752,-3.46545 -52.35995,-13.73358 -75.53125,-16.90625 -4.4,-0.60246 -11.375,-1.54745 -15.5,-2.125 -19.37171,-2.71225 -42.78495,-4.01268 -67.28125,-3.875 z m -26.875,34.062505 c 0.56343,0.003 1.16686,0.02803 1.78125,0.0625 l 5.25,0.28125 0.5625,66.312495 c 0.566,66.2982 0.5738,66.30117 -1.9375,68.8125 -3.9351,3.93506 -9.2648,3.06633 -12.0625,-1.9375 -2.0418,-3.65184 -7.24725,-21.32299 -12.46875,-42.4375 -0.7739,-3.12967 -1.5461,-4.25 -2.9375,-4.25 -2.4301,0 -2.84465,3.86378 -3.34375,30.8125 -0.2928,15.80971 -0.67775,20.61527 -1.78125,21.71875 -3.1262,3.12619 -11.12435,2.62748 -13.34375,-0.84375 -0.7655,-1.19747 -3.7152,-11.8625 -6.5625,-23.6875 -2.8473,-11.825 -5.98075,-24.425 -6.96875,-28 -0.9879,-3.575 -3.25015,-12.8 -5.03125,-20.5 -1.7812,-7.69999 -3.6455,-15.31168 -4.125,-16.90625 -0.4795,-1.59458 -0.875,-4.024155 -0.875,-5.406245 0,-1.38209 -0.66245,-4.79541 -1.46875,-7.59375 -0.8063,-2.79834 -2.22175,-7.79375 -3.15625,-11.09375 -0.9345,-3.3 -2.52205,-7.67816 -3.53125,-9.71875 -1.0092,-2.04059 -1.84375,-4.18127 -1.84375,-4.78125 0,-1.9383 6.6891,-3.96216 15.3125,-4.625 9.7328,-0.74813 10.59175,-0.17708 8.65625,5.6875 -1.1048,3.34748 -0.9559,5.28648 1,14.65625 1.2387,5.93391 2.8957,14.38125 3.6875,18.78125 1.9514,10.844775 6.11475,26.677195 7.34375,27.906245 2.4317,2.43172 3.33245,-1.9192 4.53125,-21.84375 1.3648,-22.681905 2.1916,-25.559645 7.25,-25.531245 3.3528,0.01883 4.55035,0.77363 6.21875,3.9375 1.3274,2.5171 6.16555,19.548745 8.09375,28.531245 2.3518,10.956 2.94015,12.5 4.84375,12.5 2.5014,0 3.15075,-2.15424 2.53125,-8.3125 -0.2861,-2.84348 -0.6397,-15.37314 -0.8125,-27.843745 -0.2649,-19.10736 -0.5969,-23.07745 -2,-25.21875 -3.95906,-6.042394 -1.26395,-9.513688 7.1875,-9.46875 z m 35.34375,0.0625 c 4.369,-0.102397 9.0114,0.265675 11.0625,1.125 4.2498,1.78049 4.22385,1.69459 2.40625,8.875 -0.8889,3.51148 -1.40365,12.87061 -1.53125,27.78125 -0.1059,12.374995 -0.47955,28.799995 -0.84375,36.499995 -0.957,20.22977 -0.9318,51.34966 0.0625,56.125 0.7303,3.5076 0.6087,4.18789 -0.9375,4.78125 -2.4117,0.92549 -16.38135,1.64222 -18.90625,0.96875 -3.1627,-0.84359 -4.423,-3.12564 -3.5,-6.34375 1.4571,-5.08066 1.9699,-16.80667 2.5,-57.53125 0.2864,-21.99999 0.795,-44.068465 1.125,-49.062495 0.3693,-5.58926 0.14445,-11.31904 -0.59375,-14.875 -0.7831,-3.77222 -0.85865,-6.11014 -0.21875,-6.75 0.9292,-0.929175 5.006,-1.491353 9.375,-1.59375 z m 38.15625,2 c 1.67279,-0.01643 4.23755,0.407691 8.78125,1.1875 21.3115,3.65756 34.52735,5.5355 39.03125,5.5625 6.4325,0.03851 9.13815,2.39733 9.34375,8.125 0.087,2.42416 0.2155,6.46137 0.3125,8.96875 0.412,10.59278 3.60695,10.07685 9.71875,-1.5625 4.7526,-9.05088 5.1794,-9.5 8.625,-9.5 2.6767,0 17.5809,5.29758 24.1875,8.59375 1.5571,0.77685 4.0321,1.40325 5.5,1.40625 1.468,0.0034 4.00625,0.73804 5.65625,1.625 1.65,0.88695 6.3515,1.95376 10.4375,2.375 10.9581,1.12972 11.4329,2.42553 8.5,22.093745 -3.1837,21.35003 -8.9106,20.3332 -11.9375,-2.09375 -1.6432,-12.174865 -7.69885,-14.300565 -10.59375,-3.718745 -0.634,2.317595 -2.2054,7.143745 -3.5,10.718745 -1.2945,3.575 -3.50335,11 -4.90625,16.5 -1.403,5.5 -3.22135,11.70668 -4.03125,13.78125 -0.81,2.07456 -1.9379,5.89956 -2.5,8.5 -0.5621,2.60043 -2.2974,9.21875 -3.875,14.71875 -6.92,24.12443 -9.09375,33.35046 -9.09375,38.5625 0.002,3.0525 -0.5275,6.09 -1.1875,6.75 -2.0997,2.09967 -8.22555,1.13375 -18.53125,-2.9375 -7.3275,-2.8947 -8.21805,-4.27052 -5.03125,-7.65625 2.7605,-2.93277 5.06025,-8.95067 7.34375,-19.21875 0.7958,-3.57828 2.26685,-8.525 3.28125,-11 1.633,-3.98431 4.22135,-13.2645 8.59375,-31 0.7458,-3.025 2.4783,-8.875 3.875,-13 3.496,-10.32555 8.44775,-28.211195 9.34375,-33.749995 1.0969,-6.78109 -4.79355,-8.47308 -10.03125,-2.875 -1.7325,1.85169 -4.95885,5.71481 -7.15625,8.59375 -5.624,7.368365 -7.9638,8.431355 -13.875,6.187495 -5.9352,-2.252935 -6.87945,-3.695455 -9.65625,-14.656245 -2.6791,-10.57514 -4.30585,-13.5 -7.53125,-13.5 -3.0669,0 -4.64235,2.98876 -5.53125,10.5 -0.9634,8.13991 -2.6674,20.625945 -3.875,28.499995 -0.5482,3.575 -1.72295,12.125 -2.59375,19 -0.8708,6.875 -2.71275,20.375 -4.09375,30 -1.4938,10.41138 -2.35205,20.52566 -2.15625,24.96875 0.43,9.75396 -0.7725,10.36585 -14.875,7.5 -11.2816,-2.29261 -12.77065,-3.61886 -9.40625,-8.34375 1.4616,-2.05255 2.41315,-5.11899 2.71875,-8.875 0.2571,-3.15874 1.1048,-8.9 1.875,-12.75 0.7702,-3.85 2.54405,-16 3.96875,-27 3.0928,-23.87859 4.4072,-33.29888 5.5625,-39.999995 1.7177,-9.96373 2.27725,-25.42337 0.96875,-27 -3.1504,-3.79598 -8.36295,0.6949 -14.03125,12.09375 -5.8078,11.67928 -12.50755,11.13948 -10.09375,-0.8125 2.3498,-11.6352 5.2185,-19.81708 8.0625,-23 1.57944,-1.767713 2.25552,-2.541381 4.40625,-2.5625 z m -213.71875,24.4375 c 3.73587,0.06104 6.79911,2.742553 8.90625,7.90625 1.1108,2.72207 2.7636,6.0625 3.6875,7.4375 2.53202,3.76831 3.32232,10.310735 1.4375,11.874995 -2.1246,1.76326 -4.38455,0.38126 -10.40625,-6.375 -11.0731,-12.423665 -20.25,-12.606755 -20.25,-0.375 0,13.11316 6.9424,20.13455 25,25.28125 8.00202,2.28069 26,13.74682 26,16.5625 0,0.34226 1.9983,3.66138 4.4375,7.375 7.0289,10.70184 11.4903,27.98656 10.0625,38.9375 -1.9342,14.83496 -12.88815,26.6576 -24.78125,26.75 -2.3117,0.018 -6.69373,0.90466 -9.71875,1.96875 -8.9194,3.13754 -10.60165,2.00712 -16.28125,-10.96875 -1.0878,-2.48533 -2.7482,-5.65625 -3.6875,-7.03125 -2.5352,-3.71144 -5.43175,-12.51711 -4.71875,-14.375 1.3452,-3.50565 4.8802,-1.61787 12.875,6.84375 9.7257,10.29364 14.8182,12.87001 20.3125,10.25 6.3834,-3.04404 6.83455,-14.80077 1.15625,-30 -4.0914,-10.95137 -8.96553,-15.673 -23.40625,-22.6875 -22.9497,-11.14768 -29.1333,-18.50289 -31.25,-37.0625 -1.9808,-17.366965 7.3217,-30.968745 21.1875,-30.968745 1.8267,0 4.8639,-0.42782 6.75,-0.96875 0.93341,-0.267703 1.82538,-0.389086 2.6875,-0.375 z m 364.0625,14 c 0.61539,-0.03692 1.37334,-0.01132 2.28125,0.03125 4.9491,0.23206 21.74585,8.784335 26.84375,13.656245 11.8116,11.28821 15.8887,34.25436 9.125,51.375 -5.2813,13.36832 -12.83775,21.9796 -21.34375,24.3125 -3.3726,0.92496 -5.58095,5.30249 -7.09375,14 -2.4333,13.98937 -5.3563,33.21054 -5.6875,37.46875 -0.4037,5.19168 -1.4132,5.2733 -11.75,1 -11.1498,-4.6094 -10.93355,-4.23428 -7.34375,-12.21875 1.6779,-3.73206 3.8263,-10.83125 4.75,-15.78125 0.9238,-4.95 2.07995,-10.60494 2.59375,-12.59375 2.2969,-8.89089 0.60605,-14.41255 -4.21875,-13.71875 -4.1198,0.59243 -17.84375,30.05413 -17.84375,38.3125 0,4.43334 -1.82325,4.92887 -9.21875,2.4375 -14.3409,-4.83108 -16.12205,-7.06949 -10.96875,-13.78125 2.7647,-3.6009 9.367,-18.41079 13.0625,-29.25 1.0479,-3.07349 2.35455,-6.44849 2.90625,-7.5 3.6954,-7.04262 11.25195,-23.60506 11.84375,-26 0.3924,-1.58772 3.55215,-9.52117 7.03125,-17.625 3.4791,-8.10383 7.4914,-18.45383 8.9375,-23 2.96782,-9.330583 3.42705,-10.964992 6.09375,-11.124995 z m -429.25,12.906245 c 3.10521,-0.18142 5.23504,2.01966 6.15625,6.5625 1.2463,6.14571 3.664,11.19362 8.8125,18.375 1.9703,2.74824 3.59375,5.39805 3.59375,5.875 0,0.47695 1.9967,4.07519 4.4375,8 2.4408,3.92481 4.9131,8.41328 5.5,9.96875 0.5869,1.55547 3.02165,6.05547 5.40625,10 2.3846,3.94453 6.13995,10.53125 8.34375,14.65625 2.2038,4.125 6.49095,11.79936 9.53125,17.0625 6.196,10.72593 6.81705,12.23518 7.28125,18.21875 0.9038,11.6496 -13.016,26.0497 -27.625,28.59375 -17.3269,3.01735 -22.78325,-0.84682 -34.59375,-24.375 -4.1413,-8.25 -9.49985,-18.41471 -11.90625,-22.59375 -2.4065,-4.17905 -4.375,-8.14989 -4.375,-8.8125 0,-0.66261 -2.3576,-5.31666 -5.25,-10.375 -2.8923,-5.05835 -6.36855,-11.69375 -7.71875,-14.71875 -1.3502,-3.025 -3.63665,-7.3 -5.09375,-9.5 -1.4571,-2.2 -2.98845,-5.07311 -3.40625,-6.40625 -0.4177,-1.33313 -2.78165,-4.58205 -5.21875,-7.1875 -5.2864,-5.65152 -5.2059,-5.79103 7.125,-12.6875 10.3743,-5.80218 13.5625,-5.24732 13.5625,2.34375 0,1.48038 2.8125,7.92145 6.25,14.3125 6.6115,12.29221 8.8433,16.49196 15.25,28.90625 2.1908,4.24497 5.46525,9.96875 7.28125,12.71875 1.8159,2.75 6.0542,10.53598 9.4375,17.3125 9.1744,18.37574 15.1105,24.33558 22,22.03125 10.7561,-3.5976 11.03555,-11.51633 0.96875,-27.5625 -2.8373,-4.52256 -8.83905,-15.32256 -13.34375,-24 -4.5047,-8.67745 -9.7712,-18.70625 -11.6875,-22.28125 -1.9163,-3.575 -4.918,-9.2 -6.6875,-12.5 -7.6124,-14.19666 -9.6299,-17.31958 -13.125,-20.5 l -3.6875,-3.34375 3.875,-3.34375 c 3.50188,-3.02713 6.49108,-4.60889 8.90625,-4.75 z m 448.65625,5.4375 c -3.7626,0 -6.61255,3.61033 -11.09375,14 -1.7791,4.125 -3.59585,7.95 -4.03125,8.5 -1.7066,2.15564 -10.96875,28.4894 -10.96875,31.1875 0,1.57536 0.7252,3.934 1.625,5.21875 3.9219,5.59929 14.7945,-0.64673 19.875,-11.40625 11.6508,-24.67414 13.85845,-47.5 4.59375,-47.5 z m 58.84375,19.5 c 2.00551,0.0457 5.12665,1.65927 10.5625,4.84375 10.2677,6.01509 11.48185,8.11312 6.59375,11.59375 -2.8498,2.02924 -8.20245,10.45538 -22.84375,36.0625 -3.3019,5.775 -8.9797,15.225 -12.625,21 -3.6453,5.775 -7.18005,11.625 -7.84375,13 -0.6637,1.375 -2.37945,4.3 -3.84375,6.5 -3.4994,5.25749 -10.45305,19.14039 -13.03125,26.03125 -2.5632,6.8507 -4.226,7.00996 -15.125,1.4375 -10.1191,-5.1737 -11.0964,-6.99522 -6.4375,-11.8125 3.3148,-3.4276 10.65625,-13.70801 10.65625,-14.90625 0,-0.30229 2.245,-4.04892 5,-8.34375 2.755,-4.29482 5.4406,-8.88056 5.9375,-10.1875 0.4969,-1.30695 3.1679,-5.85123 5.9375,-10.09375 2.7695,-4.24251 5.33985,-8.69559 5.71875,-9.90625 0.3789,-1.21065 1.90555,-4.01875 3.40625,-6.21875 1.5006,-2.2 3.9234,-6.3443 5.375,-9.21875 1.4516,-2.87445 4.58135,-8.27445 6.96875,-12 5.343,-8.33797 9.8838,-17.32678 11.75,-23.28125 0.9524,-3.03895 1.83824,-4.54569 3.84375,-4.5 z m 42.875,28.8125 c 2.05354,-0.0747 8.1875,3.33941 8.1875,4.6875 0,0.45082 1.575,1.73922 3.5,2.875 4.526,2.67039 4.64435,6.74947 0.59375,19.5 -1.5942,5.01836 -3.8623,12.95 -5.0625,17.625 -1.2002,4.675 -2.81325,9.97509 -3.59375,11.78125 -2.5289,5.85163 -1.024,9.83469 2.875,7.5625 1.9472,-1.13476 17.50755,-21.07419 21.09375,-27.03125 1.5923,-2.64504 3.4922,-5.825 4.25,-7.0625 1.9206,-3.13613 4.33135,-2.8011 9.71875,1.3125 5.322,4.06362 5.6993,5.6331 2,8.15625 -3.7619,2.56579 -6.7043,5.90706 -16.875,19.3125 -2.2,2.8997 -6.025,7.66693 -8.5,10.5625 -2.475,2.89556 -8.325,10.48128 -13,16.875 -4.675,6.39372 -13.80035,18.19751 -20.28125,26.21875 -6.4809,8.02123 -12.2507,15.45024 -12.8125,16.5 -0.5619,1.04976 -2.68645,3.45391 -4.71875,5.34375 -4.1556,3.86431 -7.98955,4.46485 -10.53125,1.65625 -2.3899,-2.64079 -2.06035,-4.58862 1.65625,-9.9375 3.4825,-5.01192 6.47115,-11.45963 9.15625,-19.75 0.8906,-2.75 2.9345,-9.00191 4.5625,-13.90625 1.6281,-4.90435 2.96875,-9.58224 2.96875,-10.375 0,-0.79276 1.52735,-5.9846 3.40625,-11.5625 4.2451,-12.60249 4.99445,-19.15625 2.15625,-19.15625 -2.1411,0 -17.51605,18.22283 -25.03125,29.65625 -2.4025,3.65505 -4.90385,6.95599 -5.53125,7.34375 -2.5397,1.56961 -12.3755,16.07774 -13.5,19.90625 -1.9404,6.60635 -5.89795,6.34308 -13.28125,-0.875 -5.7296,-5.60135 -5.7179,-5.59896 -3.375,-7.3125 4.7544,-3.47722 20.04825,-19.30847 21.53125,-22.28125 1.7204,-3.44854 6.4929,-9.56281 21.3125,-27.4375 5.5957,-6.74925 11.104,-14.12854 12.25,-16.375 1.1461,-2.24646 4.11325,-6.44268 6.59375,-9.34375 2.4805,-2.90106 6.28265,-7.38008 8.46875,-9.9375 2.1862,-2.55741 4.87925,-6.70823 5.96875,-9.25 1.0895,-2.54177 2.64315,-4.90195 3.46875,-5.21875 0.0975,-0.0374 0.2381,-0.0575 0.375,-0.0625 z m -643.93755,8.40625 c 4.4841,0.06 10.3384,3.68473 19.68755,11.71875 3.8755,3.33036 9.41805,7.8625 12.34375,10.0625 2.9256,2.2 8.76995,7.2161 12.96875,11.15625 10.9404,10.26625 17.9709,16.46044 23.125,20.34375 2.475,1.86478 8.55,7.26175 13.5,11.96875 4.95,4.707 12.0375,10.52933 15.75,12.96875 3.7125,2.43942 6.73375,5.14202 6.71875,6 -0.065,3.77129 -13.20275,15.0625 -17.53125,15.0625 -1.8865,0 -2.87885,-0.98455 -4.53125,-4.5 -4.9842,-10.60343 -11.9741,-12.29263 -19.9375,-4.84375 -7.5816,7.09171 -6.60055,14.99085 2.46875,19.875 5.7768,3.111 4.4622,5.88712 -5.875,12.375 -2.7202,1.70725 -5.55035,3.09375 -6.28125,3.09375 -1.2205,0 -3.28125,-3.82841 -3.28125,-6.09375 0,-1.60084 -5.7405,-13.73302 -8,-16.90625 -1.1665,-1.63817 -7.3381,-13.23711 -13.6875,-25.75 -6.3494,-12.51289 -12.48025,-24.08337 -13.65625,-25.71875 -1.1759,-1.63539 -3.7313,-5.98992 -5.6563,-9.6875 -1.9249,-3.69758 -5.9176,-11.13922 -8.875,-16.53125 -8.6015,-15.68321 -9.2489,-18.81292 -4.7187,-22.53125 1.6738,-1.37384 3.4306,-2.08975 5.4687,-2.0625 z m 28.43755,45.5 c -0.62431,-0.022 -1.12302,0.21678 -1.5625,0.65625 -1.7003,1.70032 12.9119,29.39071 17.875,33.875 1.3696,1.2375 3.5613,2.25 4.875,2.25 3.0259,0 7.24525,-3.70146 8.03125,-7.0625 0.5655,-2.41802 -7.10225,-13.88175 -9.34375,-13.96875 -0.3823,-0.0148 -4.2875,-3.36388 -8.6875,-7.46875 -6.28043,-5.85914 -9.31457,-8.21518 -11.1875,-8.28125 z m -83.81255,0.78125 c 0.8158,0 4.9939,3.4875 9.3126,7.75 12.1903,12.03205 21.1017,20.32553 28.1874,26.28125 3.573,3.00315 11.3713,10.07877 17.3126,15.71875 5.9413,5.63998 12.4642,11.15213 14.5,12.21875 2.0357,1.06662 7.2751,5.62371 11.6562,10.125 4.7226,4.85214 9.6503,8.90796 12.125,9.96875 7.4254,3.18291 7.12645,5.98196 -1.71875,15.4375 -7.5017,8.01934 -9.6172,8.35513 -13.25,2.15625 -1.4047,-2.39697 -3.80875,-5.18647 -5.34375,-6.1875 -1.5352,-1.00103 -4.8406,-3.8605 -7.375,-6.375 -2.5343,-2.5145 -7.8901,-7.29375 -11.9063,-10.59375 -4.016,-3.3 -9.4184,-7.9125 -12,-10.25 -2.5817,-2.3375 -5.5507,-4.23615 -6.5937,-4.21875 -3.4269,0.0571 -9.4063,6.58751 -9.4063,10.28125 0,2.1423 6.7852,10.01444 12.5,14.5 2.75,2.15846 9.0236,7.64087 13.9376,12.15625 4.9139,4.51539 11.5513,9.51034 14.75,11.125 3.1985,1.61466 5.81245,3.56259 5.81245,4.3125 0,2.98101 -3.18145,8.35421 -7.87505,13.34375 -5.6771,6.03521 -9.4956,7.01579 -11.0937,2.8125 -1.1704,-3.07838 -13.0664,-15.02736 -23.4687,-23.5625 -4.3571,-3.575 -11.7892,-10.02339 -16.5,-14.34375 -4.7109,-4.32035 -10.1376,-8.93241 -12.0626,-10.25 -1.9249,-1.31758 -7.0609,-6.23169 -11.4062,-10.90625 -4.3454,-4.67456 -8.4771,-8.5 -9.1875,-8.5 -0.7105,0 -4.3495,-2.67797 -8.0937,-5.96875 -4.1221,-3.62283 -8.1095,-6.24163 -10.0938,-6.625 -7.256,-1.40187 -6.3327,-6.23935 2.8125,-14.6875 8.5244,-7.87469 9.4822,-8.32844 11.9687,-5.5 1.105,1.25687 4.1425,4.71415 6.75,7.6875 6.4821,7.39157 24.6661,22.91349 27.75,23.6875 4.8766,1.22394 11.3825,-5.82556 10.3438,-11.21875 -0.546,-2.83525 -27.7198,-27.10838 -33.0938,-29.5625 -2.9073,-1.3277 -4.75,-2.82055 -4.75,-3.84375 0,-3.64958 12.1694,-16.96875 15.5,-16.96875 z m 381.06255,5.96875 c 11.14509,0 22.19609,0.50251 33.09375,1.46875 0.57666,-0.39591 1.20635,-0.32674 2.125,0.1875 6.71112,0.63397 13.36512,1.44944 19.96875,2.4375 0.86006,-0.23781 1.84296,-0.0946 2.84375,0.4375 5.6081,0.8838 11.16462,1.89823 16.6875,3.03125 0.9669,-0.39749 2.39919,-0.11012 3.96875,0.84375 19.20391,4.16105 37.8857,9.79339 55.875,16.8125 1.19866,-0.48026 3.0006,-0.0268 3.5625,1.4375 16.68769,6.71253 32.80885,14.59103 48.21875,23.5625 0.20002,-0.11195 0.40948,-0.1875 0.65625,-0.1875 0.82433,0 1.34254,0.537 1.3125,1.34375 2.62795,1.55158 5.22569,3.13596 7.8125,4.75 0.66743,-0.0236 1.07459,0.25849 1.15625,0.71875 1.97562,1.2427 3.9241,2.53381 5.875,3.8125 0.007,0.005 0.0239,-0.005 0.0312,0 1.22716,-0.53378 2.71304,0.0186 2.75,1.8125 1.43558,0.95929 2.85955,1.92757 4.28125,2.90625 0.68639,-0.63262 1.78424,-0.372 3.03125,0.875 0.8606,0.86062 1.24309,1.44322 1.0625,1.96875 1.34614,0.95323 2.66687,1.93562 4,2.90625 0.007,0.005 0.0244,-0.005 0.0312,0 0.49391,-0.16966 1.09198,0.10626 1.625,0.96875 0.0542,0.0877 0.105,0.19717 0.125,0.3125 93.65465,69.02913 154.5625,180.98885 154.5625,307.34375 0,209.7205 -167.75292,379.71875 -374.65625,379.71875 -206.90333,0 -374.62495,-169.99825 -374.62495,-379.71875 0,-179.05366 122.26119,-329.17854 286.7812,-369.25 0.52687,-0.26134 1.05099,-0.37142 1.5625,-0.375 16.78827,-4.01165 34.01809,-6.86366 51.59375,-8.5 0.27198,-0.0678 0.54631,-0.0952 0.84375,-0.0937 11.15158,-1.01247 22.43227,-1.53125 33.84375,-1.53125 z m 388.9375,10 c 6.40987,-0.0195 11.80917,1.77546 16.90627,5.40625 4.2941,3.05875 14.5797,16.8073 14.5937,19.5 0.021,4.16425 -17.4591,26.6524 -22.0312,28.34375 -2.0295,0.75076 -4.9688,-1.37826 -4.9688,-3.59375 0,-0.67996 1.9009,-5.94424 4.2188,-11.6875 14.9208,-36.97142 -7.8042,-33.11208 -55.37502,9.40625 -25.8753,23.12684 -31.86175,32.92279 -25.90625,42.40625 3.364,5.35673 10.5838,3.13485 21.25,-6.53125 3.499,-3.17092 8.37735,-7.21891 10.84375,-9 2.4664,-1.78109 6.04375,-5.46763 7.96875,-8.1875 1.9775,-2.79398 4.30015,-4.94225 5.34375,-4.96875 2.0166,-0.0511 15.65625,12.55446 15.65625,14.46875 0,1.81206 -3.41035,4.46875 -5.71875,4.46875 -5.0738,0 -35.9799,27.26448 -38.75,34.1875 -2.8273,7.06616 -10.7916,3.99628 -21.25,-8.1875 -21.0551,-24.52883 -19.21215,-42.83612 6.96875,-69 7.9976,-7.99234 12.60195,-11.7308 22.53125,-18.25 4.2397,-2.78365 8.84375,-5.82098 10.21875,-6.75 1.375,-0.92902 7.9,-3.85313 14.5,-6.5 9.16155,-3.67415 16.59016,-5.51175 23,-5.53125 z m 53.90627,57.375 c 1.1324,0.0598 2.0433,0.75151 3.0312,2 5.5202,6.97641 7.2176,9.27986 9.0625,12.25 4.3101,6.93899 9.3558,14.1016 12.8438,18.25 2.0092,2.38954 3.6562,4.76562 3.6562,5.28125 0,3.06419 -3.7312,8.54083 -10.7187,15.71875 -12.6504,12.99489 -16.2636,11.11662 -10.3438,-5.34375 4.6728,-12.99323 4.6066,-17.73409 -0.3125,-21.71875 -3.5023,-2.83695 -5.9148,-2.09925 -16.7812,5.0625 -16.8889,11.13111 -20.4153,17.82052 -10.8438,20.65625 7.3965,2.19134 7.6312,5.93558 0.9375,15.84375 -8.0767,11.95524 -11.4032,15.37707 -13.5937,14.03125 -1.9534,-1.2001 -2.0142,-2.09732 -0.875,-13.875 0.8296,-8.57724 -1.4315,-13.49925 -6.1875,-13.46875 -2.7152,0.0174 -12.9426,6.19331 -22.28127,13.46875 -2.475,1.92818 -6.73255,4.73591 -9.46875,6.25 -7.1543,3.95874 -12.53125,9.43685 -12.53125,12.75 0,7.90373 9.65425,13.97619 21.59375,13.625 17.47662,-0.51405 16.02942,4.93325 -3.34375,12.625 -14.7967,5.87473 -15.58495,5.73703 -19.96875,-3.25 -1.6097,-3.3 -5.13115,-9.27953 -7.84375,-13.3125 -15.6063,-23.20225 -16.5059,-25.59323 -10.25,-27.75 2.0347,-0.70146 5.6347,-2.67885 8,-4.375 4.4685,-3.20426 18.6776,-12.57094 41.8125,-27.5625 7.42497,-4.81144 14.62497,-9.59058 15.99997,-10.625 1.375,-1.03442 7.5285,-5.22641 13.6563,-9.3125 6.1279,-4.08608 13.4142,-9.44318 16.1875,-11.90625 4.2272,-3.75441 6.6751,-5.41221 8.5625,-5.3125 z m -897.03132,58.4375 c 10.7557,-0.1889 20.3667,5.60699 25.9376,16.78125 3.9449,7.91313 4.3783,8.09603 13.3437,5 13.1792,-4.55119 16.6199,-4.86974 27.0313,-2.5 23.3593,5.31681 37.1051,25.34146 30.3437,44.21875 -3.2951,9.19943 -13.9063,31.02641 -15.7813,32.46875 -2.368,1.82162 -3.5988,1.55626 -6.3124,-1.34375 -2.4705,-2.6402 -10.4892,-8.40625 -11.6876,-8.40625 -0.7693,0 -21.5624,-9.43964 -25.25,-11.46875 -3.042,-1.67396 -12.4377,-6.29514 -24.5,-12.03125 -4.95,-2.35395 -13.8167,-6.56725 -19.7187,-9.375 -5.9021,-2.80776 -11.0131,-5.125 -11.3437,-5.125 -0.3308,0 -3.7417,-1.37183 -7.5938,-3.0625 -3.852,-1.69067 -7.7073,-2.7969 -8.5625,-2.46875 -12.2508,4.70109 -0.1251,-25.92122 14.1563,-35.75 6.6337,-4.5656 13.4841,-6.82416 19.9374,-6.9375 z m -9.9687,14.21875 c -13.9074,0 -14.9707,9.62398 -1.625,14.65625 2.5969,0.97919 6.7111,3.02717 9.1563,4.5625 2.4451,1.53532 5.3702,2.8045 6.5,2.8125 1.1297,0.008 2.7374,0.43559 3.5624,0.96875 4.2624,2.75448 10,-0.37413 10,-5.46875 0,-7.52075 -15.744,-17.53125 -27.5937,-17.53125 z m 951.15622,3.09375 c 1.9126,0.15332 3.248,2.82366 5.8438,8.75 3.4627,7.90545 3.082,9.55201 -3.9375,17.1875 -3.0089,3.27297 -5.4688,6.33675 -5.4688,6.8125 0,0.47574 -5.175,6.04413 -11.5,12.375 -11.5704,11.58112 -12.7563,13.49901 -9.9687,15.8125 1.8307,1.51936 29.7398,-10.84219 37.75,-16.71875 5.7395,-4.21062 6.8848,-3.92211 10.25,2.71875 3.8685,7.63427 3.2545,9.31651 -3.75,10.1875 -3.24,0.40288 -9.1115,2.29975 -13.5,4.375 -4.2714,2.01989 -12.5063,5.95512 -18.2813,8.71875 -5.775,2.76363 -13.65,6.44905 -17.5,8.21875 -3.85,1.7697 -10.8975,5.07609 -15.6562,7.34375 -4.7588,2.26767 -8.9591,4.125 -9.3438,4.125 -0.5919,0 -13.5084,5.78374 -29,12.96875 -2.2,1.02036 -5.5367,2.33487 -7.4062,2.9375 -4.9747,1.60352 -7.29097,0.66809 -8.46877,-3.40625 -0.7866,-2.72102 -0.1201,-3.48252 7.37497,-8.46875 7.2281,-4.80866 46.1314,-43.2568 50.5938,-50 2.6451,-3.99705 2.7341,-4.34022 1.0625,-5.5625 -2.2663,-1.65715 -5.4534,-0.74612 -16.0625,4.5 -4.4448,2.1979 -10.5199,4.92014 -13.5,6.0625 -2.9801,1.14236 -6.6827,2.96865 -8.2188,4.0625 -1.5362,1.09385 -5.185,2.82165 -8.0937,3.84375 -9.7999,3.44355 -16.70832,7.16997 -18.81252,10.125 -3.0084,4.22489 -5.3139,3.76205 -8.5625,-1.78125 -4.0372,-6.88854 -3.99135,-12.65693 0.0937,-13.0625 4.3712,-0.43396 21.58002,-6.21079 24.50002,-8.21875 1.375,-0.94553 4.1951,-2.27103 6.25,-2.9375 2.0548,-0.66647 4.0105,-1.64832 4.3437,-2.1875 0.6142,-0.99383 10.9704,-5.875 12.4688,-5.875 0.4485,0 5.2294,-2.08284 10.625,-4.625 5.3955,-2.54217 17.6875,-8.19493 27.3125,-12.5625 10.8131,-4.9067 19.2961,-9.44245 22.1875,-11.875 3.064,-2.57779 4.8874,-3.963 6.375,-3.84375 z m -899.78122,18.21875 c -4.2576,0.063 -7.8672,0.9761 -10.2813,2.875 -2.9164,2.29401 -3.3492,6.80704 -0.9062,9.25 1.6551,1.65508 26.6038,13.98257 34.4062,17 2.475,0.95716 6.75,2.8032 9.5,4.09375 6.2126,2.91549 6.6439,2.93007 9.8126,0.4375 5.8034,-4.56496 3.7124,-11.27453 -6.0938,-19.59375 -10.4054,-8.82754 -25.5569,-14.22356 -36.4375,-14.0625 z m -87.375,25.84375 c 1.6134,-0.2143 3.9452,0.87059 7.9687,2.84375 6.2202,3.05044 29.0171,10.34626 38.125,12.1875 2.75,0.55594 9.5797,2.5306 15.1876,4.40625 5.6078,1.87565 11.0579,3.40625 12.0937,3.40625 1.0359,0 5.0063,1.13554 8.8125,2.5 3.8063,1.36446 10.3577,3.33296 14.5625,4.40625 9.9432,2.538 18.291,7.2904 21.5937,12.28125 8.2591,12.48029 1.4733,38.32569 -12.1562,46.3125 -4.1637,2.43991 -10.4762,3.75164 -14.0938,2.90625 -3.5769,-0.83591 -21.8687,-6.57986 -27,-8.46875 -5.6367,-2.07501 -29.8213,-9.92754 -41.375,-13.4375 -4.1938,-1.27406 -13.4749,-4.40719 -20.625,-6.96875 -10.8786,-3.8974 -13.518,-4.49951 -16.124997,-3.71875 -7.0318,2.10595 -7.7251,-1.80723 -2.7812,-15.4375 3.8862,-10.71411 4.3689,-10.97267 11.843797,-6 3.4261,2.2792 8.9584,4.43005 17.0624,6.625 6.6,1.78759 14.7937,4.3188 18.1876,5.625 3.3938,1.3062 6.6701,2.375 7.2812,2.375 1.8286,0 20.839,5.81791 23.2812,7.125 1.2446,0.66611 5.8491,2.22263 10.25,3.46875 4.4009,1.24612 10.475,3.19406 13.5,4.3125 9.0762,3.35575 15.0113,2.04492 18.8438,-4.15625 6.5126,-10.53751 0.2587,-17.36029 -20.3438,-22.21875 -3.8499,-0.9079 -13.9749,-3.90171 -22.5,-6.65625 -17.4666,-5.64373 -24.8121,-7.92276 -33.5,-10.34375 -3.2999,-0.91959 -7.3499,-2.30358 -9,-3.09375 -4.1151,-1.97072 -17.4041,-4.38769 -20.6562,-3.75 -4.0921,0.80241 -5.3017,-2.28693 -3.25,-8.375 1.8353,-5.44607 2.7381,-7.88072 4.8125,-8.15625 z m 953.56252,61.375 c 5.5378,-0.48893 15.9078,21.82305 12.8125,28.28125 -2.7847,5.81007 -6.4032,3.16341 -9.375,-6.84375 -0.8794,-2.96156 -2.7272,-7.54277 -4.0938,-10.15625 -2.613,-4.99727 -2.5612,-10.12545 0.125,-11.15625 0.168,-0.0645 0.3526,-0.10923 0.5313,-0.125 z m -878.56252,31.6875 c 2.23,-0.0649 4.9135,0.48925 7.5313,1.65625 2.5035,1.11609 8.3519,3.52777 12.9687,5.34375 11.6244,4.57231 12.9938,6.51129 10.6875,15.03125 -0.9445,3.48936 -1.8646,7.91404 -2.0625,9.8125 -0.8894,8.52795 -4.8191,31.60696 -5.6563,33.1875 -1.1789,2.22594 -2.4267,2.16927 -7.3124,-0.40625 -2.1731,-1.14557 -8.023,-2.66699 -13,-3.375 -4.977,-0.708 -11.9875,-1.81002 -15.5626,-2.4375 -3.575,-0.62749 -9.4249,-1.53515 -13,-2.03125 -3.575,-0.49609 -10.0999,-1.5707 -14.5,-2.375 -4.4,-0.8043 -10.25,-1.7354 -13,-2.09375 -2.75,-0.35835 -8.15,-1.24526 -12,-1.96875 -20.960097,-3.9388 -30.487097,-4.96536 -35.031197,-3.75 -9.627,2.57482 -10.3337,1.48033 -8.0312,-12.75 2.0718,-12.80635 3.3478,-14.11335 10.3124,-10.5 3.5093,1.82071 7.7102,2.92178 13.437597,3.53125 4.5794,0.48731 10.1124,1.31283 12.3124,1.84375 3.8229,0.92256 8.1926,1.6687 36.5,6.09375 47.6133,7.44295 46.5348,7.43016 50.3126,0.875 3.5674,-6.19026 1.5458,-10.43364 -10.625,-22.15625 -8.5852,-8.26909 -9.9802,-10.03412 -9.0626,-11.5 0.7928,-1.26621 2.5513,-1.96638 4.7813,-2.03125 z m 903.03122,19.3125 c 8.4239,0.0642 16.8439,0.58156 23.5626,1.59375 20.9749,3.15997 38.9123,13.74642 41.9687,24.75 1.1027,3.9704 1.4028,21.99705 0.4063,24.59375 -1.135,2.95777 -23.806,11.55934 -31.125,11.8125 -8.0053,0.27691 -7.784,-6.22084 0.375,-11.03125 21.3104,-12.56433 24.8964,-23.12962 9.6562,-28.375 -13.2618,-4.5644 -76.4848,1.35733 -91.7813,8.59375 -8.8879,4.20469 -12.3939,13.73105 -7.0312,19.09375 2.6684,2.66835 2.6575,2.67742 16.8437,1.96875 14.5759,-0.72814 24.7978,-2.49844 29.9375,-5.15625 1.608,-0.83153 3.5601,-1.28872 4.3125,-1 1.837,0.70491 4.2317,9.80447 4.4063,16.75 0.1664,6.62179 -0.9474,7.51006 -7.3125,5.78125 -7.1524,-1.94264 -44.9867,2.35124 -50.375,5.71875 -8.4466,5.27888 -14.8555,-8.79709 -14.0938,-30.90625 0.721,-20.92903 10.655,-32.31529 35.8125,-40.96875 6.3317,-2.17791 20.3978,-3.3257 34.4375,-3.21875 z m -985.21872,54.78125 c 4.4717,0.0201 5.7812,0.82331 5.7812,2.625 0,2.45521 -1.762,3.74834 -8.125,5.9375 -7.997597,2.75159 -17.536397,7.79692 -18.249997,9.65625 -1.9009,4.95383 1.3582,9.92354 8.375,12.78125 12.504697,5.0927 76.998697,8.96369 87.468797,5.25 2.2184,-0.78685 5.2486,-1.68702 6.7188,-2 9.9623,-2.12098 12.2589,-15.75305 3.375,-19.96875 -3.6876,-1.74984 -14.6427,-3.75287 -22.7188,-4.15625 -8.3051,-0.41483 -12.2913,-3.25521 -8.5938,-6.15625 8.9598,-7.02955 36.1733,-3.23759 45.4688,6.34375 7.7135,7.95064 8.9896,18.63968 3.625,30.59375 -4.5409,10.11836 -12.626,15.31945 -28.875,18.625 -9.5333,1.93937 -26.1819,3.24227 -31.4688,2.46875 -48.733597,-7.13034 -75.771997,-20.70639 -75.312397,-37.8125 0.5672,-21.11414 0.9057,-21.51093 20.6562,-23.40625 5.3733,-0.51564 9.191997,-0.79331 11.874997,-0.78125 z m 921.59372,32.0625 c 1.1332,0.0404 3.2316,0.49488 5.4063,1.15625 3.6878,1.12149 10.5403,1.701 22.7812,1.96875 9.625,0.21052 22.675,0.64884 29,0.96875 31.4556,1.59098 61.9615,1.52841 66.0938,-0.125 6.0085,-2.40414 6.4592,-1.35464 6.0625,13.65625 -0.2611,9.87835 -0.8292,10.74811 -5.8125,8.78125 -2.6888,-1.06125 -7.9139,-1.55705 -17.3437,-1.65625 -7.425,-0.0781 -22.2751,-0.55246 -33.0001,-1.0625 -35.9403,-1.70919 -59.3392,-1.00752 -62.4062,1.875 -6.2894,5.91081 -0.5913,16.3679 13.5,24.75 8.2262,4.89329 10.387,7.85457 7.9062,10.84375 -1.691,2.03759 -2.7189,1.92478 -17.1875,-1.65625 -13.5579,-3.35566 -15.8125,-3.29592 -15.8125,0.4375 0,2.79071 2.7897,5.58528 7.2813,7.28125 14.1243,5.33311 22.4359,8.76593 23.625,9.75 0.772,0.63891 5.272,2.66776 10,4.5 4.7279,1.83223 10.8437,4.23822 13.5937,5.34375 10.916,4.38831 14.3654,5.73513 23.5,9.28125 5.225,2.02838 10.6251,4.3297 12.0001,5.09375 3.6236,2.01356 5.5356,2.91663 15,7.03125 10.6436,4.62726 11,4.90086 11,9.09375 0,4.20243 -1.3493,6.90178 -4.2188,8.4375 -2.2373,1.19734 -43.7562,2.55637 -44.8438,1.46875 -0.311,-0.31098 -10.2128,-0.73571 -22,-0.96875 -11.7872,-0.23304 -28.1235,-0.75386 -36.2812,-1.15625 -10.5567,-0.52072 -16.4133,-0.37958 -20.3438,0.5 -4.1536,0.92957 -5.7949,0.95652 -6.6562,0.0937 -2.7247,-2.72927 0.5156,-22.41767 3.9062,-23.71875 0.8129,-0.31196 3.7804,0.4147 6.5938,1.625 7.6951,3.31035 16.8437,0.52942 16.8437,-5.125 0,-0.99624 0.5329,-3.80277 1.1875,-6.25 2.213,-8.27415 -2.5696,-12.8691 -13.25,-12.71875 -4.1319,0.0582 -5.8848,-0.31076 -6.2812,-1.34375 -0.8206,-2.13835 0.894,-11.25578 3.3437,-17.78125 1.1858,-3.15895 1.8731,-6.52134 1.5625,-7.5 -0.3106,-0.97866 -0.073,-3.36886 0.5,-5.28125 0.5727,-1.91239 1.2465,-11.34375 1.5,-20.96875 0.5091,-19.33513 1.088,-25.6466 2.4688,-26.5 0.1265,-0.0782 0.4035,-0.13845 0.7812,-0.125 z M 144.81608,654.5992 c 1.7564,-0.24832 4.1784,3.82859 6.4688,12.09375 2.0517,7.40413 1.8443,10.47347 -1.2188,18.3125 -3.2875,8.41335 -7.8438,-2.95359 -7.8438,-19.59375 0,-7.0074 1.0441,-10.59339 2.5938,-10.8125 z m 44.7812,41.4375 c 6.6713,0.0476 13.0834,1.30867 18.6876,3.90625 11.4169,5.29184 15.3085,11.06063 17.0624,25.3125 0.4061,3.3 1.0228,8.09235 1.4063,10.65625 0.8849,5.91518 -0.1401,6.70647 -21.0313,15.53125 -11.7321,4.95582 -15.1974,5.32119 -16.0937,1.75 -0.5635,-2.24538 -0.2817,-3.12671 1.5,-4.375 6.086,-4.26389 17.3144,-14.55927 18.625,-17.09375 4.2431,-8.20535 -1.2623,-15.97175 -11.3125,-15.96875 -18.6506,0.006 -32.1671,8.38228 -41.3125,25.5625 -7.8543,14.75489 -15.2656,22.36097 -26.2187,26.9375 -3.979,1.66249 -18.1558,2.67207 -22.1876,1.59375 -10.020897,-2.68015 -15.896797,-8.10405 -20.468697,-18.875 -3.0889,-7.27704 -3.0963,-7.27864 -1.1875,-11.59375 3.7326,-8.43808 25.160497,-18.9203 29.062497,-14.21875 1.1453,1.38 0.2534,2.6816 -6.875,9.84375 -10.676497,10.72717 -12.285497,15.36027 -6.6875,19.28125 6.3721,4.46321 26.6562,-3.38773 26.6562,-10.3125 0,-0.75392 2.6804,-6.8755 5.9376,-13.625 5.14,-10.65129 6.7576,-13.04352 12.25,-18.0625 11.5526,-10.55694 27.5108,-16.35461 42.1874,-16.25 z m 862.59382,2.15625 c -4.2772,0.0405 -6.9688,3.00435 -6.9688,7.9375 0,6.93522 1.3901,7.95938 12.6563,9.125 21.3834,2.21236 31.3437,1.45683 31.3437,-2.375 0,-2.81958 -23.3165,-12.48016 -35.0937,-14.53125 -0.6721,-0.11704 -1.3265,-0.16204 -1.9375,-0.15625 z m -50.125,44.875 c 1.0356,-0.0438 2.8984,0.77681 4.625,2.09375 3.5292,2.69185 9.9421,5.74728 17.0312,8.125 14.5194,4.86986 19.1605,6.68523 23.3125,9.03125 2.5766,1.45587 6.7125,3.23254 9.1875,3.9375 4.7669,1.35777 13.6274,4.76565 18.3438,7.09375 1.5571,0.7686 3.3571,1.40325 4,1.40625 0.643,0.003 2.2812,0.59589 3.6562,1.3125 1.375,0.7166 6.1,2.61461 10.5,4.1875 4.4,1.57289 8.5152,3.22746 9.125,3.6875 2.1166,1.59656 12.7173,4.8125 15.8438,4.8125 6.8438,0 7.3334,5.48618 1.5,16.5625 -7.0472,13.38097 -13.1134,18.74982 -26.6875,23.59375 -17.0409,6.08111 -52.0791,1.25396 -69.7813,-9.625 -2.2,-1.35202 -5.8,-3.32506 -8,-4.375 -5.5998,-2.67248 -18.57212,-16.46979 -21.84372,-23.21875 -3.8932,-8.03117 -5.09685,-16.65062 -3.09375,-22.125 0.866,-2.36661 2.03315,-5.83337 2.59375,-7.6875 1.9517,-6.45475 7.76122,-18.15472 9.31252,-18.75 0.1118,-0.0429 0.227,-0.0562 0.375,-0.0625 z m -771.37502,8.6875 c 2.7639,0 5.3223,3.66145 8.5312,12.25 3.3068,8.85045 2.7498,10.11366 -4.7187,10.9375 -3.4169,0.37691 -7.6919,1.3762 -9.5,2.21875 -3.1087,1.44857 -10.3625,4.51113 -22.7813,9.625 -3.025,1.24565 -8.4249,3.37121 -12,4.71875 -3.575,1.34754 -8.9749,3.53692 -12,4.84375 -15.64,6.75662 -27.2034,11.40569 -31.625,12.71875 -2.7133,0.80581 -6.701,2.39735 -8.875,3.5625 -2.1739,1.16515 -4.4401,2.125 -5.0312,2.125 -0.591,0 -3.4443,2.025 -6.3438,4.5 -2.8995,2.475 -5.7056,4.5 -6.2187,4.5 -1.1282,0 -4.9063,-5.98098 -4.9063,-7.78125 -0.002,-0.70579 -1.1558,-3.53677 -2.5624,-6.3125 -4.0592,-8.01048 -3.2183,-11.22954 3.0937,-12 2.7616,-0.33709 6.8116,-1.5048 9,-2.59375 2.1884,-1.08895 6.2187,-2.58895 8.9687,-3.3125 2.75,-0.72354 7.25,-2.41428 10,-3.78125 5.2827,-2.62587 13.4367,-5.79214 25,-9.65625 7.0537,-2.35711 11.6493,-4.19832 19,-7.625 2.2001,-1.02556 6.925,-2.96736 10.5,-4.3125 15.7999,-5.94491 19.7938,-7.58402 24.25,-10.09375 2.6073,-1.46846 4.9999,-3.08787 5.3126,-3.59375 0.3125,-0.50588 1.6085,-0.9375 2.9062,-0.9375 z m 773.40622,16.65625 c -0.4663,0.0453 -0.8521,0.14188 -1.2187,0.28125 -5.95002,2.26219 -4.15707,10.79421 3.7187,17.59375 10.1175,8.7348 20.3689,13.59823 49.125,23.3125 5.9571,2.0124 15.1201,4.48914 21,5.6875 17.6643,3.60007 29.8161,0.16109 25.0625,-7.09375 -1.8982,-2.89715 -6.6456,-5.41415 -18.9062,-10.03125 -5.0344,-1.89585 -10.0563,-3.83803 -11.1563,-4.34375 -8.5248,-3.91924 -25.4828,-11.0625 -26.2812,-11.0625 -0.5417,0 -6.5415,-2.24102 -13.3438,-5 -18.3754,-7.45301 -24.7358,-9.66106 -28,-9.34375 z m -756.90622,15.90625 c 0.1868,-0.0126 0.3426,-0.005 0.4375,0.0312 4.3514,1.6698 2.4913,9.07041 -3.0625,12.15625 -3.6886,2.04946 -14.4536,13.4676 -22.5938,23.96875 -1.7898,2.30898 -7.1796,9.05898 -12,15 -4.8203,5.94102 -10.1077,12.44324 -11.75,14.46875 -3.7612,4.63927 -3.9896,7.8125 -0.5312,7.8125 2.7626,0 19.5249,-8.59878 26.6562,-13.6875 2.5408,-1.81296 4.9444,-3.3125 5.3438,-3.3125 0.3994,0 2.1318,-1.0125 3.8438,-2.25 3.1304,-2.26281 6.5371,-4.13591 16.6874,-9.1875 3.0251,-1.50546 7.1548,-4.32315 9.1563,-6.25 4.6111,-4.43909 6.4887,-4.06768 10.5937,2.0625 5.0791,7.58478 4.2464,11.625 -2.4062,11.625 -2.2241,0 -10.5739,4.0751 -24.4375,11.90625 -20.7692,11.73194 -25.8994,14.72614 -29.4375,17.15625 -2.2258,1.52877 -7.7036,4.54284 -12.1562,6.71875 -4.4527,2.17591 -10.7159,5.54424 -13.9376,7.46875 -3.2214,1.9245 -7.9,4.65846 -10.375,6.0625 -2.475,1.40404 -7.3097,4.8334 -10.75,7.625 -6.2445,5.06702 -9.439,6.17383 -10.9062,3.8125 -8.3974,-13.5147 -8.1516,-16.72268 2.25,-29.1875 18.8428,-22.58056 22.4062,-27.51549 22.4062,-31 0,-2.53286 -4.1741,-1.82259 -10.0624,1.71875 -2.9928,1.79981 -8.3625,4.77973 -11.9376,6.625 -7.4012,3.82017 -15.5498,9.5014 -18.5,12.90625 -2.5984,2.99898 -4.213,2.23764 -8.25,-3.875 -4.7799,-7.23793 -4.1783,-10.9375 1.7813,-10.9375 2.2488,0 17.8365,-6.67048 20,-8.5625 1.7,-1.48658 8.851,-5.55848 19.4687,-11.0625 6.376,-3.30518 13.9426,-7.86444 20.5313,-12.375 1.3857,-0.94858 3.6357,-2.04558 5,-2.46875 3.1787,-0.9859 9.7375,-4.62987 18.0937,-10.03125 3.6338,-2.34877 7.6838,-4.59787 9,-5 1.3163,-0.40213 3.05,-1.32219 3.875,-2.03125 2.6769,-2.30065 15.1666,-7.71772 17.9688,-7.90625 z m 730.15625,18.96875 c 2.14816,0.0252 4.58028,1.63941 8.3125,4.5 3.6589,2.80437 8.40795,6.07929 10.53125,7.28125 5.56022,3.14749 12.77632,7.51459 18.53122,11.1875 2.75,1.7551 7.596,4.83157 10.75,6.84375 3.1541,2.01217 5.9641,3.65625 6.25,3.65625 0.286,0 3.3151,1.95842 6.75,4.34375 3.435,2.38533 8.5,5.60633 11.25,7.15625 2.75,1.54992 8.4554,4.99149 12.6875,7.65625 4.232,2.66475 8.0786,4.84375 8.5313,4.84375 0.4528,0 2.4765,1.125 4.5,2.5 2.0235,1.375 4.572,2.5 5.6562,2.5 6.8175,0 7.9518,3.33343 4.0313,11.71875 -5.8471,12.50618 -15.6072,22.53689 -25.5313,26.25 -7.5119,2.81053 -17.2004,2.25542 -24.2812,-1.40625 -6.6887,-3.4589 -14.0938,-13.3958 -14.0938,-18.90625 0,-6.23385 -2.8918,-7.29178 -11.9062,-4.3125 -24.76782,8.18583 -52.19517,-8.26098 -54.71877,-32.84375 -0.9103,-8.86784 1.7307,-15.80192 12,-31.71875 5.10073,-7.90592 7.61038,-11.28688 10.75,-11.25 z m -4.46875,22.84375 c -1.72074,-0.0643 -2.83264,0.70765 -4.21875,2.09375 -6.4483,6.44836 -1.0983,16.41043 14.3125,26.59375 6.4569,4.26673 10.3606,5.90237 23.24997,9.78125 6.9757,2.09922 15.1173,-0.86758 15.8438,-5.78125 0.3843,-2.59925 -6.4091,-9.49125 -13.2188,-13.40625 -2.2728,-1.30667 -10.42717,-6.07374 -18.12497,-10.59375 -10.41244,-6.11399 -14.97584,-8.58027 -17.84375,-8.6875 z m -694.7813,16.71875 c 1.3739,-0.11031 2.4907,0.42818 3.5626,1.5 2.6259,2.62593 1.8352,5.95915 -2.4376,10.40625 -8.3345,8.67463 -15.4205,19.38166 -21.8437,33 -1.1673,2.475 -3.6613,7.2 -5.5625,10.5 -1.9012,3.3 -3.9868,7.125 -4.625,8.5 -0.6382,1.375 -2.6869,5.54845 -4.5312,9.28125 -5.3876,10.90361 -2.9505,12.71889 6.25,4.625 3.1944,-2.81027 8.5125,-7.18941 11.8124,-9.71875 10.1332,-7.76666 33.2863,-28.55376 37.25,-33.4375 3.0816,-3.79666 3.9378,-3.54283 9.9688,2.9375 5.9884,6.43458 6.63845,8.99641 2.53125,9.875 -4.7786,1.02221 -7.12965,2.30261 -11.50005,6.25 -2.3384,2.1122 -5.825,4.88289 -7.75,6.1875 -1.9249,1.30462 -8.225,6.69703 -14,11.96875 -12.0329,10.98433 -22.2947,19.85296 -29.5,25.5 -4.7752,3.74253 -10.0586,8.44953 -16.875,15.0625 -1.7222,1.6708 -4.7963,4.27306 -6.8437,5.78125 -2.0474,1.5082 -5.0729,4.70142 -6.7187,7.09375 -1.646,2.39234 -3.6598,4.62706 -4.4688,4.9375 -3.5359,1.35683 -15.0458,-11.94639 -14.0938,-16.28125 0.6623,-3.01539 10.6887,-23.11622 18.3438,-36.75 5.5519,-9.88796 6.5493,-14.3125 3.1875,-14.3125 -2.8285,0 -29.6518,24.36982 -32.0937,29.15625 -2.5769,5.05105 -5.3741,5.06371 -10.125,0.0937 -6.91,-7.22862 -7.118,-10.22331 -0.875,-12.09375 3.6138,-1.08273 19.814,-13.18368 23.0624,-17.21875 0.8251,-1.02477 3.5839,-3.34893 6.125,-5.15625 5.1285,-3.64749 7.758,-5.81033 22.5626,-18.75 5.6015,-4.89591 12.0141,-10.05725 14.25,-11.46875 2.2359,-1.4115 4.0624,-2.93557 4.0624,-3.375 0,-0.43943 2.9945,-3.25883 6.6563,-6.25 3.6618,-2.99118 10.0044,-8.25 14.0937,-11.6875 4.8089,-4.04231 7.8354,-5.9724 10.125,-6.15625 z m 662.18755,15.03125 c 1.75987,0.12272 3.66019,1.56208 6.21875,4.46875 3.6991,4.20235 30.6763,27.89574 54.87502,48.1875 5.417,4.54242 9.8437,8.67815 9.8437,9.21875 0,1.31854 18.0532,14.9273 23.5938,17.78125 5.3557,2.7588 5.8045,5.75241 1.6562,11.0625 -12.7538,16.32576 -15.8992,20.49755 -19.8437,26.40625 -4.372,6.54899 -4.6111,6.753 -8.6875,6.75 -6.3931,-0.005 -26.21877,-10.6114 -26.21877,-14.03125 0,-1.56463 0.20355,-1.60735 16.96875,-2.625 21.82412,-1.32472 23.86182,-9.85512 5.81252,-24.375 -11.01042,-8.85745 -15.32432,-10.81683 -18.81252,-8.53125 -2.5227,1.65293 -2.6324,2.06308 -2,7.125 0.6494,5.19708 0.56935,5.39422 -1.96875,6.03125 -3.0956,0.77694 -24.1845,-5.71407 -27.625,-8.5 -4.3707,-3.53919 0.0882,-7.08675 8.9375,-7.09375 8.3381,-0.007 15.23785,-7.32762 12.21875,-12.96875 -3.0143,-5.63226 -34.5943,-31.93199 -39.25,-32.6875 -8.4464,-1.37067 -12.37255,8.58167 -9.15625,23.1875 2.8077,12.75082 2.8919,15.16693 0.5625,15.90625 -1.1306,0.35885 -3.053,0.0886 -4.25,-0.625 -2.7842,-1.6599 -16.9375,-23.20659 -16.9375,-25.78125 0,-1.06948 2.5306,-4.79171 5.625,-8.25 3.0943,-3.45829 6.8075,-7.85625 8.25,-9.78125 3.7841,-5.04984 15.2361,-18.28782 17.0625,-19.71875 1.05548,-0.82696 2.06908,-1.22988 3.125,-1.15625 z m 97.40627,7.3125 c -1.8224,-0.0196 -3.194,0.91681 -4.7188,2.71875 -6.0331,7.12991 6.1377,19.60449 23.25,23.84375 11.8328,2.93137 16.5969,-5.64181 7,-12.59375 -2.475,-1.79289 -4.9541,-3.30725 -5.5312,-3.34375 -0.577,-0.0365 -4.8487,-2.56788 -9.4688,-5.625 -5.1026,-3.37645 -8.1882,-4.97483 -10.5312,-5 z m -717.65627,31.875 c 2.65114,0.11368 4.94665,2.19301 8.96875,6.3125 3.6956,3.78504 12.00625,11.75925 18.46875,17.71875 13.5314,12.47816 13.7904,13.2085 6.5,18.0625 -2.8875,1.92252 -5.925,4.58962 -6.75,5.9375 -1.7031,2.78249 -15.7382,18.96414 -27.125,31.25 -4.2025,4.53435 -8.46515,9.61362 -9.46875,11.3125 -1.0035,1.69889 -2.14985,3.09375 -2.53125,3.09375 -0.3813,0 -5.1186,5.50615 -10.53125,12.21875 -5.4125,6.7126 -11.9636,14.7004 -14.5625,17.75 -2.599,3.0495 -5.0103,6.794 -5.3437,8.3126 -0.3335,1.5184 -1.2745,3.4305 -2.0938,4.25 -0.8194,0.8191 -1.8069,1.4686 -2.1875,1.4686 -1.7234,0 -11.832,-7.6837 -18.125,-13.7812 -3.8094,-3.6911 -9.0145,-8.2937 -11.5625,-10.2188 -11.3117,-8.5458 -10.9528,-8.02 -9.0938,-13.56245 2.1797,-6.49829 10.8541,-22.53765 12.875,-23.8125 3.9714,-2.50503 5.087,0.93441 4.375,13.53125 -0.8597,15.2138 2.0653,22.8437 8.75,22.8437 4.0485,0 23.625,-23.58991 23.625,-28.4687 0,-3.19316 -3.7401,-5.67241 -8.1562,-5.375 -1.872,0.12607 -4.0129,-0.13822 -4.75,-0.59375 -2.0017,-1.2371 -0.675,-11.07278 2.375,-17.625 1.3879,-2.98153 2.5213,-5.89798 2.5312,-6.46875 0.005,-0.57078 1.3297,-2.59578 2.9376,-4.5 4.4886,-5.31599 6.4006,-3.49628 7.0937,6.65625 0.6839,10.01536 3.9699,15.375 9.375,15.375 4.4634,0 34.82425,-34.9025 36.15625,-41.5625 1.8351,-9.17527 -10.37415,-13.48741 -26.90625,-9.53125 -17.0472,4.07939 -15.444,-1.86752 4.0625,-15.15625 5.45075,-3.71329 8.44261,-5.55118 11.09375,-5.4375 z m 573.0625,21.15625 c 2.25344,-0.0731 4.53705,0.11962 6.84375,0.59375 11.567,2.37751 35.2581,22.83567 47.125,40.6875 3.38,5.08458 6.15625,9.606 6.15625,10.03125 0,0.42526 1.04845,2.33482 2.34375,4.25 5.0623,7.48502 9.47655,16.78056 11.09375,23.46875 0.9309,3.85005 2.1064,8.37335 2.625,10.06245 3.1875,10.3813 -0.84915,22.4687 -9.40625,28.0939 -2.6235,1.7246 -5.79345,4.087 -7.03125,5.25 -3.683,3.46 -5.98065,2.6177 -15.03125,-5.5 -12.8912,-11.5626 -16.86635,-18.4064 -10.71875,-18.4064 1.5826,0 3.42935,0.6683 4.09375,1.4688 1.7063,2.056 19.36765,8.7417 21.21875,8.0312 7.2301,-2.7744 4.496,-15.7164 -6.5,-30.6562 -18.7902,-25.52959 -39.01465,-48.22814 -48.78125,-54.75 -19.0744,-12.73738 -25.86505,6.67729 -9.15625,26.1875 7.8615,9.17959 9.2704,13.71875 4.25,13.71875 -9.1922,0 -25.03235,-20.07073 -26.65625,-33.78125 -1.78596,-15.08013 11.75719,-28.23852 27.53125,-28.75 z m -40.21875,28.625 c 1.65716,-0.0621 2.70362,0.59649 3.0625,1.96875 0.8778,3.35661 7.0062,15.00955 11.25,21.4375 2.1786,3.3 4.8401,7.8 5.9375,10 1.0975,2.2 4.4748,8.05 7.5,13 3.0252,4.94997 6.65935,11.02495 8.09375,13.49995 1.4345,2.4751 4.12965,6.9751 5.96875,10 1.8391,3.025 6.3921,10.675 10.125,17 7.1256,12.074 12.9734,20.5706 15.75,22.875 2.6678,2.2142 1.9846,3.5706 -4.25,8.4688 -10.7248,8.4259 -13.6443,8.2406 -17.125,-1.0938 -3.6515,-9.7922 -14.4755,-24.0557 -16.625,-21.9062 -3.1236,3.1235 -1.8642,30.0933 1.625,34.8126 3.2373,4.3787 2.1373,7.0392 -4.4375,10.75 -8.7924,4.962 -8.7466,5.0244 -8.5,-11.6876 0.2897,-19.6317 0.4417,-18.6133 -4.1875,-23.4063 -2.28,-2.3606 -5.6719,-6.3374 -7.5625,-8.8125 -1.8906,-2.4749 -10.99645,-12.375 -20.21875,-22 -9.2224,-9.6249 -20.0133,-21.2161 -24,-25.7812 -3.9866,-4.56506 -9.01085,-9.42691 -11.15625,-10.78125 -4.952,-3.1257 -4.95105,-5.24879 0.0312,-9.75 8.6876,-7.84879 16.71285,-9.03273 18.34375,-2.6875 1.9782,7.69646 42.9344,53.83525 47.875,53.93745 7.0078,0.145 4.1905,-7.1912 -13.1875,-34.43745 -3.1571,-4.95 -7.64805,-12.70859 -9.96875,-17.25 -2.7456,-5.3727 -5.64885,-9.46865 -8.34375,-11.71875 -5.2396,-4.3749 -4.2157,-7.09187 4.875,-12.71875 3.86297,-2.39104 6.99437,-3.63886 9.125,-3.71875 z m -476.0625,0.28125 c 2.27307,-0.0244 5.6803,1.98342 11.65625,5.96875 8.2718,5.5164 10.30645,8.38108 7.15625,10.125 -2.5946,1.43635 -8.4544,7.52312 -11.1875,11.625 -3.5651,5.35037 -17.758,25.8566 -21.9375,31.6875 -2.0763,2.8967 -6.75585,10.0968 -10.40625,16 -3.6505,5.9034 -7.7629,12.0688 -9.125,13.7187 -1.3621,1.6501 -3.39655,4.8258 -4.53125,7.0625 -1.1347,2.2369 -2.81335,4.6862 -3.71875,5.4375 -2.4361,2.0218 -5.6677,8.8415 -5.3125,11.2188 0.8144,5.4502 7.77535,4.5473 16.84375,-2.2188 7.7921,-5.8135 12.96875,-6.6199 12.96875,-2 0,2.5439 -13.71045,18.8489 -18.84375,22.4064 -4.5601,3.1601 -6.2594,3.2573 -8.75,0.5 -1.0478,-1.16 -6.63125,-5.432 -12.40625,-9.4689 -5.775,-4.0367 -12.75,-9.1468 -15.5,-11.375 -4.48085,-3.6305 -6.89765,-4.991 -14.12505,-8 -2.8065,-1.1684 -3.8266,-5.4803 -2.0937,-8.875 4.4481,-8.7129 12.1658,-21.9527 13.75,-23.5937 4.39985,-4.5575 6.1068,1.8513 3.4375,12.9062 -2.4897,10.3112 -1.20985,15.5 3.78125,15.5 1.6911,0 9.5106,-9.9053 17.125,-21.6875 2.5598,-3.9607 5.04765,-7.4511 5.53125,-7.75 0.4837,-0.2989 1.76715,-2.2473 2.84375,-4.3125 2.451,-4.7019 12.6657,-20.21359 23.1875,-35.24995 12.4739,-17.82605 13.36075,-19.24037 14.84375,-23.5 1.41515,-4.06451 2.53943,-6.10065 4.8125,-6.125 z m 90.5625,47.4375 c 2.14518,0.0413 5.01011,0.95686 9.1875,2.53125 5.6554,2.1315 12.85675,4.4 24.65625,7.7812 2.475,0.7093 6.3,2.0865 8.5,3.0625 2.2,0.9761 5.39155,1.8006 7.09375,1.8125 5.8615,0.042 6.54535,2.058 5.40625,16 -1.2414,15.194 -2.351,19.6821 -5.125,20.5625 -3.2465,1.0305 -4.67285,-1.3087 -6.46875,-10.5625 -2.9526,-15.2133 -3.5054,-16.5 -6.875,-16.5 -2.4963,0 -3.12755,0.5469 -4.09375,3.5 -0.6299,1.925 -2.16325,6.564 -3.40625,10.3125 -1.2431,3.7487 -4.23725,14.0987 -6.65625,23 -5.5283,20.3432 -7.8109,28.1265 -9.75,33.1875 -0.8429,2.2001 -1.5385,4.9679 -1.5625,6.1564 -0.0241,1.1885 -0.91765,4.5635 -1.96875,7.5 -4.123,11.5184 -5.57325,17.6168 -5.65625,23.9061 -0.0474,3.6049 -0.406,7.0924 -0.8125,7.75 -1.0654,1.7239 -5.07858,1.3759 -13.625,-1.1875 -13.6558,-4.0959 -13.5963,-3.9971 -8.4375,-14.4686 1.9593,-3.9772 4.2057,-10.347 5,-14.1564 0.7943,-3.8092 1.85585,-7.9632 2.34375,-9.2186 1.282,-3.2986 7.69955,-24.0046 10.15625,-32.7814 1.1546,-4.125 3.64555,-12.45 5.53125,-18.5 3.0038,-9.6368 5.67985,-20.4301 7.09375,-28.5 0.2409,-1.375 -0.2415,-3.3999 -1.0625,-4.5 -2.1365,-2.8628 -6.8784,-0.1482 -13.25,7.5625 -9.92172,12.0072 -16.0453,9.9866 -9.9375,-3.2812 1.3349,-2.8997 3.99948,-8.7687 5.9375,-13.0313 2.58163,-5.67791 4.20596,-8.00635 7.78125,-7.93745 z m 275.6875,4.6875 c 3.26617,-0.0326 3.45625,1.81555 3.25,8.18745 -0.1205,3.7198 0.4713,10.5912 1.3125,15.2812 2.3356,13.0224 4.72285,29.6461 5.53125,38.5313 0.4004,4.4001 1.507,13.175 2.4375,19.5 0.9306,6.3251 2.17495,14.875 2.78125,19 4.5881,31.2165 4.1623,34.5098 -4.6875,36.375 -4.7021,0.991 -5.8372,-0.7411 -15.3125,-23.375 -12.4964,-29.8505 -14.0514,-29.8232 -11.625,0.125 2.1975,27.1258 2.18625,26.5951 -0.0937,28.875 -5.1636,5.1635 -12.3965,2.5309 -14.5,-5.2812 -0.6201,-2.3029 -2.05615,-5.4549 -3.15625,-7 -1.1002,-1.5451 -2.5572,-4.9149 -3.25,-7.5 -1.1099,-4.1414 -3.3224,-10.3811 -13.25,-37.2188 -1.3224,-3.575 -3.2375,-8.75 -4.25,-11.5 -3.8866,-10.5567 -8.28585,-22.2011 -10.21875,-27 -1.1077,-2.75 -3.17535,-8.1304 -4.59375,-11.9686 -1.4185,-3.8385 -3.6509,-8.5417 -4.9375,-10.4377 -1.2866,-1.8958 -2.181,-3.9092 -2,-4.4999 0.9554,-3.1174 18.37225,-7.9211 21.53125,-5.9375 1.1732,0.7367 1.8729,3.0456 2.3125,7.4687 0.3643,3.6653 3.00325,13.2062 6.15625,22.375 9.4078,27.3578 10.0916,28.9711 12.4375,29.3125 3.4383,0.5005 3.6136,-2.3076 1.75,-27.4061 -0.9223,-12.4219 -0.40495,-14.75 3.59375,-16.4064 4.4701,-1.8515 7.85285,0.9429 10.03125,8.2814 0.9149,3.0815 2.541,7.0827 3.625,8.9061 1.0841,1.8235 3.0062,6.1107 4.25,9.5313 2.6293,7.2314 4.3096,9.1305 6.5,7.3126 1.0412,-0.8641 1.34755,-2.5707 1.03125,-5.875 -1.2082,-12.621 -2.61545,-22.9525 -3.46875,-25.6564 -0.5207,-1.6499 -1.42995,-6.8251 -2.03125,-11.5 -0.6953,-5.4067 -1.78975,-9.464 -3.03125,-11.1875 -4.07,-5.6497 -3.05435,-6.8775 7.46875,-8.74995 1.8662,-0.33208 3.31753,-0.55162 4.40625,-0.5625 z m -186.0625,18.62495 c 2.58998,-0.1288 5.30065,0.3455 8.21875,1.375 2.3383,0.825 6.24235,1.5 8.65625,1.5 6.4504,0 7.9355,2.9805 8.75,17.3438 0.7326,12.9194 -0.15815,20.4647 -2.59375,22 -3.4945,2.203 -5.9087,-2.2296 -9.8125,-18.0313 -2.191,-8.8683 -9.30575,-13.0897 -13.84375,-8.2187 -2.6773,2.8739 -6.1548,12.8009 -7.25,20.75 -0.5042,3.659 -1.55715,9.3563 -2.34375,12.6562 -4.5016,18.884 -5.75515,63.0613 -1.96875,69.5625 7.5744,13.0054 18.1715,2.9893 21.5,-20.3437 1.535,-10.7607 2.60305,-12.6106 6.34375,-10.9063 3.7352,1.702 5.5625,6.8243 5.5625,15.625 0,18.5779 -6.3938,31.2013 -18.25,36 -11.0516,4.4731 -23.0041,1.4021 -32.8125,-8.4062 -11.1138,-11.1139 -14.31825,-44.5709 -6.90625,-72.0313 1.1134,-4.125 2.631,-9.75 3.375,-12.5 1.9101,-7.0605 8.19485,-22.085 11.71875,-28 7.27432,-12.2102 13.88632,-17.9885 21.65625,-18.375 z m 93.53125,0.9375 c 5.19145,0.037 4.87234,3.3549 5.34375,26.5313 0.2787,13.705 0.6501,27.1562 0.8125,29.9062 0.1624,2.75 0.7771,13.1001 1.375,23 0.5979,9.9001 1.30755,22.2751 1.59375,27.5 0.488,8.9066 1.35215,15.3103 3.03125,22.5937 1.0971,4.7588 -1.0061,6.1206 -10.8125,6.9376 -14.0547,1.1707 -17.8793,-0.6203 -15.1875,-7.0626 2.6822,-6.4192 1.262,-55.144 -1.6875,-58.0937 -2.6201,-2.62 -9.84485,-2.9425 -12.78125,-0.5625 -2.4882,2.0168 -2.4914,2.0073 -2.25,21.3439 0.1328,10.6349 0.668,21.3687 1.1875,23.8436 0.5196,2.4751 1.42805,6.9751 2.03125,10 0.6031,3.025 1.34435,6.4675 1.65625,7.6563 0.3995,1.5228 -0.0146,2.4884 -1.4375,3.25 -1.1106,0.5943 -5.98705,1.2961 -10.84375,1.5624 -10.4349,0.5725 -14.0579,-0.616 -13.5,-4.5 1.0536,-7.335 -0.3785,-57.4632 -2.3125,-80.9687 -0.1584,-1.9249 -0.5955,-11.375 -1,-21 -0.4978,-11.8467 -1.24555,-18.7228 -2.28125,-21.3125 -1.9585,-4.8973 -0.78275,-6.2455 6.65625,-7.6562 13.1804,-2.4996 18.9303,-0.8395 17.375,5.0312 -1.6363,6.1767 -0.0601,44.6 1.90625,46.5625 2.6991,2.6939 10.91165,3.0429 13.15625,0.5625 2.7315,-3.0182 2.171,-35.0643 -0.875,-49.7811 -0.7254,-3.5052 0.83885,-4.054 14.28125,-5.0314 1.86056,-0.1352 3.36447,-0.3211 4.5625,-0.3125 z m -231.40625,22.0313 c 4.02375,0.029 7.99812,1.9147 10.59375,6.3437 4.4788,7.6426 1.0802,18.5487 -6.25,20.0939 -1.5176,0.3197 -3.5083,0.7557 -4.4375,0.9374 -3.7406,0.7313 -11.29685,-3.988 -13.21875,-8.25 -4.64984,-10.3116 4.46025,-19.188 13.3125,-19.125 z m 378.78125,8.9062 c 15.2441,-0.014 20.6287,18.5692 7.3125,25.25 -5.7684,2.8942 -10.1053,2.3133 -14.9375,-2 -9.6494,-8.6131 -4.8547,-23.239 7.625,-23.25 z"
         id="path11631-6"
         inkscape:connector-curvature="0"
         inkscape:export-xdpi="300"
         inkscape:export-ydpi="300" />
      <path
         sodipodi:type="arc"
         style="fill:url(#radialGradient15571);fill-opacity:1;fill-rule:evenodd;stroke:#000000;stroke-width:1px;stroke-linecap:butt;stroke-linejoin:miter;stroke-opacity:1"
         id="path12690"
         sodipodi:cx="-694.29333"
         sodipodi:cy="584.11969"
         sodipodi:rx="374.63501"
         sodipodi:ry="374.63501"
         d="m -319.65833,584.11969 c 0,206.9052 -167.7298,374.63501 -374.635,374.63501 -206.90521,0 -374.63497,-167.72981 -374.63497,-374.63501 0,-206.9052 167.72976,-374.63501 374.63497,-374.63501 206.9052,0 374.635,167.72981 374.635,374.63501 z"
         transform="matrix(1.0015008,0,0,1.0166294,1306.1338,7.62847)" />
      <path
         style="fill:#ffd100;fill-opacity:1"
         d="m 797.3529,394.64183 c -24.67267,6.7341 -34.25927,10.09109 -51.5867,14.38535 -14.23396,3.52762 -28.49829,7.10052 -42.99091,9.33964 -18.69268,2.88802 -37.60757,4.33718 -56.5,5.25 -7.99074,0.38608 -16.00488,0.3748 -24,0.0937 -11.89328,-0.41816 -23.76581,-1.42586 -35.60368,-2.6464 -8.4939,-0.87577 -17.01175,-1.73735 -25.39632,-3.3536 -10.80871,-2.08355 -21.24481,-5.81206 -32,-8.15625 -13.89603,-3.02877 -33.39161,-7.02891 -41.98026,-7.62339 -12.74499,3.78654 -19.1636,12.12285 -27.99753,14.90383 -5.02666,2.98675 -21.49114,11.32528 -21.2188,12.09375 0.2798,0.72905 -5.80861,5.75194 -7.04191,6.41198 -9.3974,5.02937 -11.16889,8.18403 -15.30179,16.58802 -1.0819,2.2 -4.1229,7.825 -6.75,12.5 -2.6271,4.675 -6.8168,12.325 -9.3125,17 -2.4957,4.675 -4.79231,10.72496 -5.98191,12.15213 -6.12731,14.18432 -7.80773,17.71063 -15.09295,33.67604 2.98518,7.16705 10.72041,13.28747 18.44986,15.3553 5.07817,1.35854 10.28269,-2.69826 15.53944,-2.68831 6.70838,0.0127 13.79822,0.54414 19.81747,3.50573 4.87913,2.40064 9.0033,6.49079 12.05341,10.99255 2.86823,4.23333 5.13193,9.25281 5.39806,14.35938 0.26576,5.09957 -1.24405,10.44331 -3.87088,14.82235 -3.875,6.45981 -10.02242,11.66481 -16.60279,15.33135 -5.68553,3.16793 -16.87996,-0.98636 -18.8125,5.22865 -3.27052,10.51789 -0.38798,21.28019 -0.34219,31.92106 0.0411,9.54777 -0.63931,19.16517 0.5535,28.63822 2.99873,23.81514 8.1806,47.57836 16.5,70.0937 1.85697,5.02562 4.71237,9.63206 7.375,14.2813 6.68702,11.67624 12.77061,23.93906 21.5625,34.125 13.60404,15.76111 29.02319,27.76398 47.36078,40.72219 38.8473,27.45134 92.6758,33.77257 140.14786,29.03441 23.81348,-2.3768 45.79333,-15.40834 66.037,-28.17253 18.73468,-11.81273 36.23472,-26.45307 49.86986,-43.90619 15.25869,-19.53128 27.14844,-42.26894 34.17005,-66.03857 9.34912,-31.64875 12.92728,-65.64593 9.58586,-98.53707 -5.12869,-50.48423 -10.29971,-106.09205 -7.04309,-149.55498 1.63903,-21.87452 9.99631,-43.63824 17.21738,-55.43547 -4.78159,-9.71994 -7.27401,-12.41118 -16.21132,-16.69287 z"
         id="path11633"
         inkscape:connector-curvature="0"
         sodipodi:nodetypes="caaaaaaacccssssccaaaaaaasaaaaasaaaasscc" />
      <path
         style="fill:#000000;fill-opacity:1"
         d="m 489.06762,405.0732 c 12.27366,1.16011 57.6714,13.16732 86.99209,16.59327 29.104,3.40063 58.53761,4.94298 87.82032,3.88006 16.25337,-0.58997 32.46808,-2.72047 48.46024,-5.68202 4.93611,-0.91411 9.73124,-2.47106 14.59375,-3.71875 12.14062,-3.1152 24.27968,-6.23677 36.40625,-9.40625 4.5346,-1.18519 9.08839,-2.30186 13.59375,-3.59375 3.79428,-1.08799 7.37044,-3.29888 11.3125,-3.5 5.76159,-0.29394 10.43277,-3.19865 16.96875,3.40625 6.82902,6.901 7.08079,8.6673 2.25,16.25 -1.91093,2.9995 -3.4859,5.91055 -3.5,6.46875 -0.0141,0.5581 -0.87601,2.60905 -1.90625,4.53125 -2.17669,4.0612 -4.13836,10.51795 -7.4375,24.46875 -2.75247,11.639 -3.87997,60.53735 -1.75,76.09375 0.60658,4.4302 1.53154,15.65945 2.0625,24.96875 0.53095,9.30932 1.25332,16.29482 1.9375,24.43752 0.48334,5.7523 0.99616,11.5022 1.53125,17.25 0.52776,5.669 1.2377,11.3219 1.65625,17 0.45927,6.2305 0.77083,12.4736 0.9375,18.7187 0.13423,5.0295 0.1658,10.06384 0.0501,15.0938 -0.26601,11.56411 -0.17382,23.19469 -1.71067,34.6593 -1.64837,12.29649 -4.00466,24.60644 -8.02057,36.34497 -5.72995,16.74864 -12.77397,33.35588 -22.71875,48 -11.35195,16.71623 -25.6036,31.66922 -41.36704,44.31094 -15.10207,12.11132 -32.16634,22.04386 -50.04562,29.46599 -12.32768,5.11753 -25.47908,8.66431 -38.75,10.0938 -24.21296,2.60812 -48.95185,0.90392 -73,-2.9375 -4.10597,-0.65588 -8.04857,-2.11192 -12,-3.4063 -8.2817,-2.71286 -16.48537,-5.70274 -24.5,-9.125 -4.59738,-1.96309 -9.30621,-3.81058 -13.5,-6.5312 -19.29299,-12.51586 -37.65632,-27.11492 -52.75144,-44.46437 -12.66485,-14.55624 -21.48684,-32.10902 -30.8264,-48.99259 -1.4349,-2.59393 -2.79369,-5.24578 -3.85966,-8.01184 -3.41707,-8.86688 -6.0022,-18.06722 -8.0625,-27.3437 -0.75381,-3.39403 -1.16593,-6.85846 -1.5625,-10.3125 -2.46227,-21.44601 -5.03458,-42.97563 -5.0625,-64.5625 -0.009,-7.00877 0.0625,-17.60898 1.58945,-20.96617 1.80612,-0.7595 5.36599,-0.83117 7.97305,-1.56513 5.00221,-1.40827 10.22546,-2.64202 14.61783,-5.41915 3.7159,-2.34942 6.67362,-5.79279 9.44467,-9.20585 0.97994,-1.20698 1.9294,-2.49129 2.5,-3.9375 2.15121,-5.45235 3.6811,-11.43569 3.25,-17.2812 -0.23429,-3.17692 -1.66955,-6.19765 -3.125,-9.03127 -2.2739,-4.42706 -4.48895,-9.41935 -8.625,-12.1875 -9.51932,-6.37104 -20.70426,-12.05865 -33.5,-7.65625 -7.7662,2.6719 -9.91103,2.535 -15.65625,-1 -2.6816,-1.65 -5.26225,-3 -5.71875,-3 -1.65706,0 -4.125,-3.73725 -4.125,-6.21875 0,-2.5374 7.53366,-20.59825 10.96875,-26.28125 0.99734,-1.65 3.712,-6.6 6.03125,-11 9.02905,-17.1297 9.57461,-18.03853 14.46875,-27 2.07411,-3.79782 3.62759,-7.95014 6.3125,-11.34375 5.12841,-6.4821 11.77928,-11.65561 18.3125,-16.71875 8.53272,-6.61272 13.82306,-10.28709 27.11289,-17.71184 m 0.92434,-10.00812 c -11.25686,6.08234 -21.56295,12.07212 -30.93601,20.00669 -8.51755,7.21035 -17.64164,14.60002 -22.57211,24.7253 -6.61315,13.58086 -16.56448,28.09771 -23.44326,42.85656 -5.65451,12.13211 -12.33261,24.9994 -14.58585,37.41266 4.8162,7.97727 11.62755,10.41059 18.83094,17.22224 2.72386,2.6097 7.39969,2.89353 11.26281,2.76068 3.80537,-0.13087 7.07745,-3.30821 10.88141,-3.47516 8.36296,-0.36702 17.30452,1.23721 24.5,5.51495 1.88492,1.1206 3.37044,2.9789 4.3352,4.94815 2.06277,4.21042 3.43714,9.18136 2.67896,13.80822 -1.04206,6.35924 -4.66546,12.60336 -9.54657,16.81057 -3.5473,3.05755 -8.61606,3.73079 -13.10657,5.06016 -6.23159,1.8448 -19.80335,1.33293 -19.07977,4.01073 2.00633,7.47702 -0.28096,23.54202 -0.006,35.30823 0.34251,14.67878 0.32055,29.42093 2.0625,44 1.2499,10.46091 3.18889,20.87785 6,31.0312 2.75388,9.94665 6.22622,19.74263 10.59375,29.0938 5.91325,12.66064 13.01284,24.81544 21,36.2812 5.28065,7.58051 11.20359,14.757 17.68886,21.33657 13.14306,13.33418 26.83952,26.54959 42.71875,36.4688 11.07819,6.92016 23.45537,11.77236 35.93692,15.62281 15.96673,4.92561 32.54424,8.73908 49.2409,9.3871 29.08532,1.12885 59.41139,0.23695 86.78629,-9.65473 25.08512,-9.06428 46.87021,-26.32027 66.81341,-44.03165 10.78177,-9.5752 20.53582,-20.66132 27.90475,-33.05608 14.1227,-23.75481 24.52376,-50.1815 30.10927,-77.24704 5.78185,-28.01692 3.03416,-64.18435 3.03416,-85.76825 0,0 -2.6192,-23.00514 -3.684,-34.53208 -1.64883,-17.84915 -3.56688,-35.69776 -4.18737,-53.61217 -0.61444,-17.74002 -1.48299,-35.60634 0.46338,-53.24996 1.29559,-11.74435 3.79006,-23.41787 7.42534,-34.66033 2.52067,-7.79544 11.40603,-14.44503 9.89724,-22.49775 -1.52561,-8.1425 -4.36399,-10.72604 -17.56422,-17.58261 -12.14501,6.48587 -30.8261,10.4132 -46.58404,14.38995 -16.80098,4.23998 -33.84231,7.64093 -51,10.0625 -17.97171,2.53646 -36.10069,4.52117 -54.25,4.6562 -25.325,0.18842 -50.73388,-1.66493 -75.78708,-5.37007 -28.21479,-4.17271 -82.07386,-19.11557 -83.44791,-18.91608 m 294.67249,24.12995 c -1.71716,0.0162 -3.77296,0.37316 -6.1875,1.03125 -12.48917,3.404 -12.28869,3.92358 -18.5,5.65625 -18.39978,5.13269 -52.78695,14.75705 -55.5625,14.03125 -0.96705,-0.2529 -4.15043,0.18105 -7.09375,0.96875 -7.50594,2.0088 -42.53072,4.55355 -59.84375,4.34375 -21.05337,-0.2551 -56.5616,-4.1753 -72.5,-8 -4.4,-1.0559 -11.825,-2.80285 -16.5,-3.90625 -4.675,-1.1034 -15.93598,-3.68349 -23.96108,-5.24943 -9.45836,-1.84562 -18.10677,-5.81333 -28.49475,-4.88381 -5.44627,2.61809 -16.39998,6.92867 -23.74346,11.86321 -12.80655,8.60551 -31.39927,19.34309 -34.80071,30.52003 -0.11486,0.46111 -1.98973,4.0752 -4.40625,8 -6.76425,10.9863 -17.59375,32.79245 -17.59375,35.40625 0,2.7597 3.80346,4.6565 11.5,5.75 9.21768,1.3097 15.53799,3.37715 21.78125,7.09375 32.88327,19.5754 31.3234,68.33833 -2.75,85.37502 -6.3888,3.1944 -10.65942,4.064 -13.33593,4.99826 -0.34405,4.638 0.95525,15.82355 1.36718,24.87674 1.08652,23.8791 3.63799,47.84017 8.90625,71.1562 1.1899,5.26618 2.91706,10.43429 5.09375,15.375 5.83232,13.23834 13.56748,25.57847 21.1875,37.875 1.32255,2.13421 2.61297,4.31508 4.25,6.2188 10.54321,12.2608 22.48297,23.46857 35.5,33.0625 11.2982,8.32711 23.88944,14.8404 36.53125,20.9375 2.41305,1.16381 4.90131,2.20351 7.46875,2.9687 16.95248,5.05248 34.32806,9.80835 52,10.5938 19.3421,0.85968 39.00335,-1.54118 57.71875,-6.5 13.49126,-3.57463 26.49126,-9.36668 38.46875,-16.5313 15.5868,-9.3236 29.72425,-21.155 42.63141,-33.93323 3.35737,-3.32384 6.19368,-7.15405 8.9375,-11 6.61409,-9.27085 12.8411,-18.87914 18.0625,-29 4.9581,-9.61052 9.19821,-19.63978 12.5,-29.9375 1.3512,-4.21417 2.13705,-8.59391 2.96234,-12.94177 0.76621,-4.03665 1.32776,-8.1113 1.84375,-12.1875 0.45103,-3.56302 0.94838,-7.13019 1.09375,-10.7187 0.83458,-20.60213 0.15103,-41.2746 -1.28125,-61.8438 -0.2084,-2.9929 -0.71246,-5.9578 -1.0625,-8.9375 -0.4111,-3.4994 -0.83219,-6.9977 -1.21875,-10.5 -0.73539,-6.6626 -1.46927,-12.575 -2.09375,-20 -0.62449,-7.425 -1.59628,-15.43582 -2.125,-17.78122 -0.52873,-2.3454 -0.9375,-5.97675 -0.9375,-8.09375 0,-2.117 -0.49747,-6.2875 -1.09375,-9.25 -1.92797,-9.579 -2.59555,-49.2731 -0.9375,-55.875 0.48346,-1.925 1.17281,-6.65 1.53125,-10.5 0.65812,-7.0691 3.59229,-18.1588 8.21875,-31 4.86022,-13.4901 3.90979,-19.60151 -3.53125,-19.53125 z m -88.125,70.75 c 0.32407,0.0109 0.59506,0.0844 0.8125,0.21875 1.9742,1.2201 2.93742,18.4592 3.625,65.0625 0.62476,42.34507 1.07193,46.32797 5.90625,52.87497 1.82449,2.4708 2.25998,3.8489 1.59375,5.0938 -1.23296,2.3038 -15.83873,12.04 -39.4375,26.25 -7.11128,4.282 -13.50665,7.7812 -14.21875,7.7812 -2.18486,0 -4.46074,-5.7923 -4.25,-10.8125 0.39214,-9.3412 -1.2074,-74.9783 -2.125,-87.40622 -0.98184,-13.2979 -2.27213,-18.0052 -5.84375,-21.1875 -2.12155,-1.8904 -2.94825,-5.59375 -1.25,-5.59375 0.48681,0 3.29931,-1.99225 6.25,-4.40625 4.83869,-3.9586 27.23907,-17.3283 37.375,-22.3125 2.2,-1.0819 5.56942,-2.92655 7.5,-4.09375 1.672,-1.01077 3.09029,-1.50141 4.0625,-1.46875 z m -112.84375,4.5 c 4.33901,-0.30229 4.69643,12.66281 5.625,67.37502 0.69737,41.0896 0.68805,41.0863 3.84375,45.9375 4.22289,6.4919 4.01067,6.8865 -8.125,14.7812 -15.47992,10.0703 -25.54522,16.3595 -33.0625,20.6563 -11.86036,6.7794 -11.60105,7.0848 -12.0625,-12.9688 -0.0696,-3.025 -0.44869,-12.7 -0.84375,-21.5 -0.39506,-8.8 -0.82431,-26.8 -0.96875,-40 -0.28286,-25.84987 -0.21346,-25.49612 -6.53125,-36.34372 -2.46131,-4.226 -1.8741,-5.73205 3.28125,-8.34375 2.26967,-1.1497 5.94283,-4.01435 8.96875,-5.9375 6.14706,-3.90682 12.39458,-7.65464 18.65625,-11.375 7.02568,-4.1743 19.14356,-11.984 21.21875,-12.28125 z m 39,132.75002 c 3.32097,0.1218 3.4909,12.2459 4.21875,61.0312 0.70679,47.3742 1.23901,55.0325 4.25,60.6875 1.6212,3.0448 1.61088,3.2974 -0.15625,5.25 -1.98489,2.1933 -22.41537,14.9182 -31.53125,19.625 -3.025,1.5619 -6.4,3.5651 -7.5,4.4688 -1.1,0.9036 -4.19323,2.8508 -6.875,4.3125 -8.03453,4.3791 -9.21453,3.892 -9.96875,-4.0938 -0.94064,-9.9599 0.53436,-11.83068 0.53125,-17.75 -0.0127,-24.21995 -2.58785,-52.94369 -2.25,-72.625 0.13386,-7.0121 -1.865,-14.5207 -5.0625,-19.0312 -3.75299,-5.2941 3.11994,-9.68176 6.84787,-12.73826 4.38538,-3.59555 10.21079,-6.8186 15.43338,-10.04304 9.05713,-5.59189 18.52298,-10.5047 27.5625,-16.125 1.52609,-0.94884 3.39301,-3.0093 4.5,-2.9687 z"
         id="path11631-8"
         inkscape:connector-curvature="0"
         sodipodi:nodetypes="caaaaaaasssssssaaaaaaaaaaaaaaaaaaaaacaaaaaaassssssaaaccasaccaaaaaaacaaaaaaaaaaaaacaaaaacaaaacscasssssacacssssscsaaaaaaaaaaaaaaaaaaaasssssssscsscsssscsscccccssssssscsaaccscsccsaaccsaac" />
    </g>
  </g>
</svg>
